{
    "asset": {
        "version": "2.0",
        "generator": "Open Asset Import Library (assimp v5.0.5eb040c7)"
    },
    "accessors": [
        {
            "bufferView": 0,
            "byteOffset": 0,
            "componentType": 5126,
            "count": 6592,
            "type": "VEC3",
            "max": [
                0.35751527547836306,
                0.34439510107040408,
                1.0488518476486207
            ],
            "min": [
                -0.35751527547836306,
                -0.47406110167503359,
                0.004665255546569824
            ]
        },
        {
            "bufferView": 1,
            "byteOffset": 0,
            "componentType": 5126,
            "count": 6592,
            "type": "VEC3",
            "max": [
                0.9996137022972107,
                0.9983097314834595,
                0.99876469373703
            ],
            "min": [
                -0.9996137619018555,
                -0.9997222423553467,
                -0.9994048476219177
            ]
        },
        {
            "bufferView": 2,
            "byteOffset": 0,
            "componentType": 5125,
            "count": 9888,
            "type": "SCALAR",
            "max": [
                6591
            ],
            "min": [
                0
            ]
        }
    ],
    "buffers": [
        {
            "byteLength": 197760,
            "uri": "result.bin"
        }
    ],
    "bufferViews": [
        {
            "buffer": 0,
            "byteOffset": 0,
            "byteLength": 79104,
            "target": 34962
        },
        {
            "buffer": 0,
            "byteOffset": 79104,
            "byteLength": 79104,
            "target": 34962
        },
        {
            "buffer": 0,
            "byteOffset": 158208,
            "byteLength": 39552,
            "target": 34963
        }
    ],
    "materials": [
        {
            "name": "Material.001",
            "pbrMetallicRoughness": {
                "baseColorFactor": [
                    0.800000011920929,
                    0.800000011920929,
                    0.800000011920929,
                    1.0
                ],
                "metallicFactor": 0.0,
                "roughnessFactor": 0.9717157483100891
            }
        }
    ],
    "meshes": [
        {
            "name": "Plane",
            "primitives": [
                {
                    "mode": 4,
                    "material": 0,
                    "indices": 2,
                    "attributes": {
                        "POSITION": 0,
                        "NORMAL": 1
                    }
                }
            ]
        }
    ],
    "nodes": [
        {
            "name": "RootNode",
            "children": [
                1
            ]
        },
        {
            "name": "Bear",
            "matrix": [
                100.0,
                0.0,
                0.0,
                0.0,
                0.0,
                -0.000016292067812173629,
                -100.0,
                0.0,
                0.0,
                100.0,
                -0.000016292067812173629,
                0.0,
                0.0,
                0.0,
                0.0,
                1.0
            ],
            "mesh": 0
        }
    ],
    "scenes": [
        {
            "nodes": [
                0
            ]
        }
    ],
    "scene": 0
}