{
    "asset" : {
        "generator" : "Khronos glTF Blender I/O v1.1.45",
        "version" : "2.0"
    },
    "scene" : 0,
    "scenes" : [
        {
            "name" : "Scene",
            "nodes" : [
                0
            ]
        }
    ],
    "nodes" : [
        {
            "mesh" : 0,
            "name" : "School_Chair"
        }
    ],
    "materials" : [
        {
            "doubleSided" : true,
            "emissiveFactor" : [
                0,
                0,
                0
            ],
            "name" : "School_Chair_Clean",
            "normalTexture" : {
                "index" : 0,
                "texCoord" : 0
            },
            "pbrMetallicRoughness" : {
                "baseColorTexture" : {
                    "index" : 1,
                    "texCoord" : 0
                },
                "metallicRoughnessTexture" : {
                    "index" : 2,
                    "texCoord" : 0
                }
            }
        }
    ],
    "meshes" : [
        {
            "name" : "School_Chair",
            "primitives" : [
                {
                    "attributes" : {
                        "POSITION" : 0,
                        "NORMAL" : 1,
                        "TANGENT" : 2,
                        "TEXCOORD_0" : 3
                    },
                    "indices" : 4,
                    "material" : 0
                }
            ]
        }
    ],
    "textures" : [
        {
            "source" : 0
        },
        {
            "source" : 1
        },
        {
            "source" : 2
        }
    ],
    "images" : [
        {
            "mimeType" : "image/png",
            "name" : "SchoolChair_Normal",
            "uri" : "Clean_texture/SchoolChair_Normal.png"
        },
        {
            "mimeType" : "image/png",
            "name" : "SchoolChair_Albedo",
            "uri" : "Clean_texture/SchoolChair_Albedo.png"
        },
        {
            "mimeType" : "image/png",
            "name" : "SchoolChair_Metallic-SchoolChair_Roughness",
            "uri" : "Clean_texture/SchoolChair_Metallic-SchoolChair_Roughness.png"
        }
    ],
    "accessors" : [
        {
            "bufferView" : 0,
            "componentType" : 5126,
            "count" : 1102,
            "max" : [
                0.2108229547739029,
                0.7987891435623169,
                0.22614437341690063
            ],
            "min" : [
                -0.2108229547739029,
                -8.130073547363281e-05,
                -0.18757203221321106
            ],
            "type" : "VEC3"
        },
        {
            "bufferView" : 1,
            "componentType" : 5126,
            "count" : 1102,
            "type" : "VEC3"
        },
        {
            "bufferView" : 2,
            "componentType" : 5126,
            "count" : 1102,
            "type" : "VEC4"
        },
        {
            "bufferView" : 3,
            "componentType" : 5126,
            "count" : 1102,
            "type" : "VEC2"
        },
        {
            "bufferView" : 4,
            "componentType" : 5123,
            "count" : 4296,
            "type" : "SCALAR"
        }
    ],
    "bufferViews" : [
        {
            "buffer" : 0,
            "byteLength" : 13224,
            "byteOffset" : 0
        },
        {
            "buffer" : 0,
            "byteLength" : 13224,
            "byteOffset" : 13224
        },
        {
            "buffer" : 0,
            "byteLength" : 17632,
            "byteOffset" : 26448
        },
        {
            "buffer" : 0,
            "byteLength" : 8816,
            "byteOffset" : 44080
        },
        {
            "buffer" : 0,
            "byteLength" : 8592,
            "byteOffset" : 52896
        }
    ],
    "buffers" : [
        {
            "byteLength" : 61488,
            "uri" : "School_Chair.bin"
        }
    ]
}
