{
    "asset": {
        "version": "2.0",
        "generator": "Open Asset Import Library (assimp v5.0.5eb040c7)"
    },
    "accessors": [
        {
            "bufferView": 0,
            "byteOffset": 0,
            "componentType": 5126,
            "count": 564,
            "type": "VEC3",
            "max": [
                0.15748031437397004,
                0.35433071851730349,
                0.15748031437397004
            ],
            "min": [
                -0.15748031437397004,
                -0.35433071851730349,
                -0.15748031437397004
            ]
        },
        {
            "bufferView": 1,
            "byteOffset": 0,
            "componentType": 5126,
            "count": 564,
            "type": "VEC3",
            "max": [
                1.0,
                1.0,
                0.9951848387718201
            ],
            "min": [
                -1.0,
                -1.0,
                -0.9951848387718201
            ]
        },
        {
            "bufferView": 2,
            "byteOffset": 0,
            "componentType": 5125,
            "count": 1116,
            "type": "SCALAR",
            "max": [
                563
            ],
            "min": [
                0
            ]
        },
        {
            "bufferView": 3,
            "byteOffset": 0,
            "componentType": 5126,
            "count": 564,
            "type": "VEC3",
            "max": [
                0.15748031437397004,
                0.35433071851730349,
                0.15748031437397004
            ],
            "min": [
                -0.15748031437397004,
                -0.35433071851730349,
                -0.15748031437397004
            ]
        },
        {
            "bufferView": 4,
            "byteOffset": 0,
            "componentType": 5126,
            "count": 564,
            "type": "VEC3",
            "max": [
                1.0,
                1.0,
                0.9951848387718201
            ],
            "min": [
                -1.0,
                -1.0,
                -0.9951848387718201
            ]
        },
        {
            "bufferView": 5,
            "byteOffset": 0,
            "componentType": 5125,
            "count": 1116,
            "type": "SCALAR",
            "max": [
                563
            ],
            "min": [
                0
            ]
        },
        {
            "bufferView": 6,
            "byteOffset": 0,
            "componentType": 5126,
            "count": 564,
            "type": "VEC3",
            "max": [
                0.15748031437397004,
                0.35433071851730349,
                0.15748031437397004
            ],
            "min": [
                -0.15748031437397004,
                -0.35433071851730349,
                -0.15748031437397004
            ]
        },
        {
            "bufferView": 7,
            "byteOffset": 0,
            "componentType": 5126,
            "count": 564,
            "type": "VEC3",
            "max": [
                1.0,
                1.0,
                0.9951848387718201
            ],
            "min": [
                -1.0,
                -1.0,
                -0.9951848387718201
            ]
        },
        {
            "bufferView": 8,
            "byteOffset": 0,
            "componentType": 5125,
            "count": 1116,
            "type": "SCALAR",
            "max": [
                563
            ],
            "min": [
                0
            ]
        },
        {
            "bufferView": 9,
            "byteOffset": 0,
            "componentType": 5126,
            "count": 5252,
            "type": "VEC3",
            "max": [
                4.724409580230713,
                0.07874015718698502,
                0.9841553568840027
            ],
            "min": [
                -4.723410606384277,
                -0.07874015718698502,
                -0.9842519760131836
            ]
        },
        {
            "bufferView": 10,
            "byteOffset": 0,
            "componentType": 5126,
            "count": 5252,
            "type": "VEC3",
            "max": [
                1.0,
                1.0,
                1.0
            ],
            "min": [
                -1.0,
                -1.0,
                -1.0
            ]
        },
        {
            "bufferView": 11,
            "byteOffset": 0,
            "componentType": 5125,
            "count": 6246,
            "type": "SCALAR",
            "max": [
                5251
            ],
            "min": [
                0
            ]
        },
        {
            "bufferView": 12,
            "byteOffset": 0,
            "componentType": 5126,
            "count": 6621,
            "type": "VEC3",
            "max": [
                2.7301862239837648,
                0.7086614370346069,
                0.373769074678421
            ],
            "min": [
                -2.1848371028900148,
                -3.1369571111723728e-13,
                -0.689223051071167
            ]
        },
        {
            "bufferView": 13,
            "byteOffset": 0,
            "componentType": 5126,
            "count": 6621,
            "type": "VEC3",
            "max": [
                1.0,
                1.0,
                1.0
            ],
            "min": [
                -1.0,
                -1.0,
                -1.0
            ]
        },
        {
            "bufferView": 14,
            "byteOffset": 0,
            "componentType": 5125,
            "count": 9450,
            "type": "SCALAR",
            "max": [
                6620
            ],
            "min": [
                0
            ]
        }
    ],
    "buffers": [
        {
            "byteLength": 401736,
            "uri": "result.bin"
        }
    ],
    "bufferViews": [
        {
            "buffer": 0,
            "byteOffset": 0,
            "byteLength": 6768,
            "target": 34962
        },
        {
            "buffer": 0,
            "byteOffset": 6768,
            "byteLength": 6768,
            "target": 34962
        },
        {
            "buffer": 0,
            "byteOffset": 13536,
            "byteLength": 4464,
            "target": 34963
        },
        {
            "buffer": 0,
            "byteOffset": 18000,
            "byteLength": 6768,
            "target": 34962
        },
        {
            "buffer": 0,
            "byteOffset": 24768,
            "byteLength": 6768,
            "target": 34962
        },
        {
            "buffer": 0,
            "byteOffset": 31536,
            "byteLength": 4464,
            "target": 34963
        },
        {
            "buffer": 0,
            "byteOffset": 36000,
            "byteLength": 6768,
            "target": 34962
        },
        {
            "buffer": 0,
            "byteOffset": 42768,
            "byteLength": 6768,
            "target": 34962
        },
        {
            "buffer": 0,
            "byteOffset": 49536,
            "byteLength": 4464,
            "target": 34963
        },
        {
            "buffer": 0,
            "byteOffset": 54000,
            "byteLength": 63024,
            "target": 34962
        },
        {
            "buffer": 0,
            "byteOffset": 117024,
            "byteLength": 63024,
            "target": 34962
        },
        {
            "buffer": 0,
            "byteOffset": 180048,
            "byteLength": 24984,
            "target": 34963
        },
        {
            "buffer": 0,
            "byteOffset": 205032,
            "byteLength": 79452,
            "target": 34962
        },
        {
            "buffer": 0,
            "byteOffset": 284484,
            "byteLength": 79452,
            "target": 34962
        },
        {
            "buffer": 0,
            "byteOffset": 363936,
            "byteLength": 37800,
            "target": 34963
        }
    ],
    "materials": [
        {
            "name": "Material #29",
            "pbrMetallicRoughness": {
                "baseColorFactor": [
                    0.5882353186607361,
                    0.4274510145187378,
                    0.0,
                    1.0
                ],
                "metallicFactor": 0.0,
                "roughnessFactor": 0.8779872059822083
            }
        },
        {
            "name": "Material #26",
            "pbrMetallicRoughness": {
                "baseColorFactor": [
                    0.658823549747467,
                    0.658823549747467,
                    0.658823549747467,
                    1.0
                ],
                "metallicFactor": 0.0,
                "roughnessFactor": 0.8549014925956726
            }
        },
        {
            "name": "Material #27",
            "pbrMetallicRoughness": {
                "baseColorFactor": [
                    0.5879999995231628,
                    0.5879999995231628,
                    0.5879999995231628,
                    1.0
                ],
                "metallicFactor": 0.0,
                "roughnessFactor": 0.959750771522522
            }
        }
    ],
    "meshes": [
        {
            "name": "Object008",
            "primitives": [
                {
                    "mode": 4,
                    "material": 0,
                    "indices": 2,
                    "attributes": {
                        "POSITION": 0,
                        "NORMAL": 1
                    }
                }
            ]
        },
        {
            "name": "Object006",
            "primitives": [
                {
                    "mode": 4,
                    "material": 0,
                    "indices": 5,
                    "attributes": {
                        "POSITION": 3,
                        "NORMAL": 4
                    }
                }
            ]
        },
        {
            "name": "Object004",
            "primitives": [
                {
                    "mode": 4,
                    "material": 0,
                    "indices": 8,
                    "attributes": {
                        "POSITION": 6,
                        "NORMAL": 7
                    }
                }
            ]
        },
        {
            "name": "Object002",
            "primitives": [
                {
                    "mode": 4,
                    "material": 1,
                    "indices": 11,
                    "attributes": {
                        "POSITION": 9,
                        "NORMAL": 10
                    }
                }
            ]
        },
        {
            "name": "Object",
            "primitives": [
                {
                    "mode": 4,
                    "material": 2,
                    "indices": 14,
                    "attributes": {
                        "POSITION": 12,
                        "NORMAL": 13
                    }
                }
            ]
        }
    ],
    "nodes": [
        {
            "name": "RootNode",
            "children": [
                1
            ]
        },
        {
            "name": "Dummy001_$AssimpFbx$_PreRotation",
            "matrix": [
                1.0,
                0.0,
                0.0,
                0.0,
                0.0,
                -4.371138828673793e-8,
                -1.0,
                0.0,
                0.0,
                1.0,
                -4.371138828673793e-8,
                0.0,
                0.0,
                0.0,
                0.0,
                1.0
            ],
            "children": [
                2
            ]
        },
        {
            "name": "Dummy001_$AssimpFbx$_Scaling",
            "matrix": [
                0.9624630212783814,
                0.0,
                0.0,
                0.0,
                0.0,
                0.06317300349473953,
                0.0,
                0.0,
                0.0,
                0.0,
                0.17814600467681886,
                0.0,
                0.0,
                0.0,
                0.0,
                1.0
            ],
            "children": [
                3
            ]
        },
        {
            "name": "Dummy001_$AssimpFbx$_GeometricTranslation",
            "matrix": [
                1.0,
                0.0,
                0.0,
                0.0,
                0.0,
                1.0,
                0.0,
                0.0,
                0.0,
                0.0,
                1.0,
                0.0,
                0.0,
                -7.066352623041894e-7,
                5.732677459716797,
                1.0
            ],
            "children": [
                4
            ]
        },
        {
            "name": "Dummy001",
            "children": [
                5
            ]
        },
        {
            "name": "Dummy001_$AssimpFbx$_GeometricTranslationInverse",
            "matrix": [
                1.0,
                0.0,
                0.0,
                0.0,
                0.0,
                1.0,
                0.0,
                0.0,
                0.0,
                0.0,
                1.0,
                0.0,
                -0.0,
                7.066352623041894e-7,
                -5.732677459716797,
                1.0
            ],
            "children": [
                6,
                7,
                8,
                9,
                10
            ]
        },
        {
            "name": "Object008",
            "matrix": [
                1.0390009880065919,
                0.0,
                0.0,
                0.0,
                0.0,
                15.829527854919434,
                0.0,
                0.0,
                0.0,
                0.0,
                5.613383769989014,
                0.0,
                1.3209009170532227,
                -0.04915689677000046,
                3.128802537918091,
                1.0
            ],
            "mesh": 0
        },
        {
            "name": "Object006",
            "matrix": [
                1.0390009880065919,
                0.0,
                0.0,
                0.0,
                0.0,
                15.829527854919434,
                0.0,
                0.0,
                0.0,
                0.0,
                5.613383769989014,
                0.0,
                2.3435401916503908,
                -0.04915689677000046,
                3.128802537918091,
                1.0
            ],
            "mesh": 1
        },
        {
            "name": "Object004",
            "matrix": [
                1.0390009880065919,
                0.0,
                0.0,
                0.0,
                0.0,
                15.829527854919434,
                0.0,
                0.0,
                0.0,
                0.0,
                5.613383769989014,
                0.0,
                3.3661794662475588,
                -0.04915689677000046,
                3.128802537918091,
                1.0
            ],
            "mesh": 2
        },
        {
            "name": "Object002",
            "matrix": [
                1.0390009880065919,
                0.0,
                0.0,
                0.0,
                0.0,
                15.829527854919434,
                0.0,
                0.0,
                0.0,
                0.0,
                5.613383769989014,
                0.0,
                -0.7652816772460938,
                -0.04915689677000046,
                5.670287609100342,
                1.0
            ],
            "mesh": 3
        },
        {
            "name": "Object",
            "matrix": [
                1.0390009880065919,
                0.0,
                0.0,
                0.0,
                0.0,
                15.829527854919434,
                0.0,
                0.0,
                0.0,
                0.0,
                5.613383769989014,
                0.0,
                2.854649543762207,
                -5.658057689666748,
                4.01417875289917,
                1.0
            ],
            "mesh": 4
        }
    ],
    "scenes": [
        {
            "nodes": [
                0
            ]
        }
    ],
    "scene": 0
}