{
    "asset": {
        "version": "2.0",
        "generator": "Open Asset Import Library (assimp v5.0.5eb040c7)"
    },
    "accessors": [
        {
            "bufferView": 0,
            "byteOffset": 0,
            "componentType": 5126,
            "count": 306,
            "type": "VEC3",
            "max": [
                8.885100364685059,
                8.433699607849121,
                43.973201751708987
            ],
            "min": [
                -5.470900058746338,
                -1.0424000024795533,
                32.76139831542969
            ]
        },
        {
            "bufferView": 1,
            "byteOffset": 0,
            "componentType": 5126,
            "count": 306,
            "type": "VEC3",
            "max": [
                0.9983280897140503,
                0.6361203789710999,
                0.9824733138084412
            ],
            "min": [
                -0.9244628548622131,
                -0.8400841951370239,
                -0.0576026476919651
            ]
        },
        {
            "bufferView": 2,
            "byteOffset": 0,
            "componentType": 5126,
            "count": 306,
            "type": "VEC2",
            "max": [
                0.5428000092506409,
                0.6726999878883362
            ],
            "min": [
                0.45719999074935915,
                0.6004999876022339
            ]
        },
        {
            "bufferView": 3,
            "byteOffset": 0,
            "componentType": 5125,
            "count": 306,
            "type": "SCALAR",
            "max": [
                305
            ],
            "min": [
                0
            ]
        },
        {
            "bufferView": 4,
            "byteOffset": 0,
            "componentType": 5126,
            "count": 4572,
            "type": "VEC3",
            "max": [
                16.14859962463379,
                21.994800567626954,
                44.107398986816409
            ],
            "min": [
                -12.339699745178223,
                -7.981400012969971,
                -70.42839813232422
            ]
        },
        {
            "bufferView": 5,
            "byteOffset": 0,
            "componentType": 5126,
            "count": 4572,
            "type": "VEC3",
            "max": [
                1.0,
                1.0,
                1.0
            ],
            "min": [
                -1.0,
                -1.0,
                -1.0
            ]
        },
        {
            "bufferView": 6,
            "byteOffset": 0,
            "componentType": 5126,
            "count": 4572,
            "type": "VEC2",
            "max": [
                0.991100013256073,
                0.9596999883651733
            ],
            "min": [
                -0.3305000066757202,
                0.023000001907348634
            ]
        },
        {
            "bufferView": 7,
            "byteOffset": 0,
            "componentType": 5125,
            "count": 14052,
            "type": "SCALAR",
            "max": [
                4571
            ],
            "min": [
                0
            ]
        },
        {
            "bufferView": 8,
            "byteOffset": 0,
            "componentType": 5126,
            "count": 686,
            "type": "VEC3",
            "max": [
                55.847900390625,
                22.6112003326416,
                71.0541000366211
            ],
            "min": [
                -62.19499969482422,
                15.538900375366211,
                -52.001800537109378
            ]
        },
        {
            "bufferView": 9,
            "byteOffset": 0,
            "componentType": 5126,
            "count": 686,
            "type": "VEC3",
            "max": [
                1.0,
                1.0,
                1.0
            ],
            "min": [
                -1.0,
                -1.0,
                -1.0
            ]
        },
        {
            "bufferView": 10,
            "byteOffset": 0,
            "componentType": 5126,
            "count": 686,
            "type": "VEC2",
            "max": [
                0.9926000237464905,
                0.9836999773979187
            ],
            "min": [
                0.026100000366568567,
                0.8266000151634216
            ]
        },
        {
            "bufferView": 11,
            "byteOffset": 0,
            "componentType": 5125,
            "count": 1509,
            "type": "SCALAR",
            "max": [
                685
            ],
            "min": [
                0
            ]
        },
        {
            "bufferView": 12,
            "byteOffset": 0,
            "componentType": 5126,
            "count": 372,
            "type": "VEC3",
            "max": [
                4.454999923706055,
                27.532299041748048,
                -60.86370086669922
            ],
            "min": [
                2.6960999965667726,
                10.023599624633789,
                -78.88099670410156
            ]
        },
        {
            "bufferView": 13,
            "byteOffset": 0,
            "componentType": 5126,
            "count": 372,
            "type": "VEC3",
            "max": [
                1.0,
                1.0,
                1.0
            ],
            "min": [
                -1.0,
                -1.0,
                -1.0
            ]
        },
        {
            "bufferView": 14,
            "byteOffset": 0,
            "componentType": 5126,
            "count": 372,
            "type": "VEC2",
            "max": [
                0.30649998784065249,
                0.8151000142097473
            ],
            "min": [
                0.020500000566244127,
                0.733299970626831
            ]
        },
        {
            "bufferView": 15,
            "byteOffset": 0,
            "componentType": 5125,
            "count": 639,
            "type": "SCALAR",
            "max": [
                371
            ],
            "min": [
                0
            ]
        }
    ],
    "buffers": [
        {
            "byteLength": 255976,
            "uri": "result.bin"
        }
    ],
    "bufferViews": [
        {
            "buffer": 0,
            "byteOffset": 0,
            "byteLength": 3672,
            "target": 34962
        },
        {
            "buffer": 0,
            "byteOffset": 3672,
            "byteLength": 3672,
            "target": 34962
        },
        {
            "buffer": 0,
            "byteOffset": 7344,
            "byteLength": 2448,
            "target": 34962
        },
        {
            "buffer": 0,
            "byteOffset": 9792,
            "byteLength": 1224,
            "target": 34963
        },
        {
            "buffer": 0,
            "byteOffset": 11016,
            "byteLength": 54864,
            "target": 34962
        },
        {
            "buffer": 0,
            "byteOffset": 65880,
            "byteLength": 54864,
            "target": 34962
        },
        {
            "buffer": 0,
            "byteOffset": 120744,
            "byteLength": 36576,
            "target": 34962
        },
        {
            "buffer": 0,
            "byteOffset": 157320,
            "byteLength": 56208,
            "target": 34963
        },
        {
            "buffer": 0,
            "byteOffset": 213528,
            "byteLength": 8232,
            "target": 34962
        },
        {
            "buffer": 0,
            "byteOffset": 221760,
            "byteLength": 8232,
            "target": 34962
        },
        {
            "buffer": 0,
            "byteOffset": 229992,
            "byteLength": 5488,
            "target": 34962
        },
        {
            "buffer": 0,
            "byteOffset": 235480,
            "byteLength": 6036,
            "target": 34963
        },
        {
            "buffer": 0,
            "byteOffset": 241516,
            "byteLength": 4464,
            "target": 34962
        },
        {
            "buffer": 0,
            "byteOffset": 245980,
            "byteLength": 4464,
            "target": 34962
        },
        {
            "buffer": 0,
            "byteOffset": 250444,
            "byteLength": 2976,
            "target": 34962
        },
        {
            "buffer": 0,
            "byteOffset": 253420,
            "byteLength": 2556,
            "target": 34963
        }
    ],
    "materials": [
        {
            "name": "DefaultMaterial",
            "pbrMetallicRoughness": {
                "baseColorFactor": [
                    0.6000000238418579,
                    0.6000000238418579,
                    0.6000000238418579,
                    1.0
                ],
                "metallicFactor": 0.0
            }
        },
        {
            "name": "Glass",
            "pbrMetallicRoughness": {
                "baseColorFactor": [
                    0.6000000238418579,
                    0.6000000238418579,
                    0.6000000238418579,
                    1.0
                ],
                "metallicFactor": 0.0
            }
        },
        {
            "name": "Body",
            "pbrMetallicRoughness": {
                "baseColorFactor": [
                    0.6000000238418579,
                    0.6000000238418579,
                    0.6000000238418579,
                    1.0
                ],
                "metallicFactor": 0.0
            }
        }
    ],
    "meshes": [
        {
            "name": "Null_glass",
            "primitives": [
                {
                    "mode": 4,
                    "material": 1,
                    "indices": 3,
                    "attributes": {
                        "POSITION": 0,
                        "NORMAL": 1,
                        "TEXCOORD_0": 2
                    }
                }
            ]
        },
        {
            "name": "Corps",
            "primitives": [
                {
                    "mode": 4,
                    "material": 2,
                    "indices": 7,
                    "attributes": {
                        "POSITION": 4,
                        "NORMAL": 5,
                        "TEXCOORD_0": 6
                    }
                }
            ]
        },
        {
            "name": "Pale1",
            "primitives": [
                {
                    "mode": 4,
                    "material": 2,
                    "indices": 11,
                    "attributes": {
                        "POSITION": 8,
                        "NORMAL": 9,
                        "TEXCOORD_0": 10
                    }
                }
            ]
        },
        {
            "name": "Pale2",
            "primitives": [
                {
                    "mode": 4,
                    "material": 2,
                    "indices": 15,
                    "attributes": {
                        "POSITION": 12,
                        "NORMAL": 13,
                        "TEXCOORD_0": 14
                    }
                }
            ]
        }
    ],
    "nodes": [
        {
            "name": "input.obj",
            "children": [
                1,
                2,
                3,
                4,
                5,
                6,
                7,
                8
            ]
        },
        {
            "name": "Null_glass"
        },
        {
            "name": "Null_glass_node",
            "mesh": 0
        },
        {
            "name": "Corps"
        },
        {
            "name": "Corps_node",
            "mesh": 1
        },
        {
            "name": "Pale1"
        },
        {
            "name": "Pale1_node",
            "mesh": 2
        },
        {
            "name": "Pale2"
        },
        {
            "name": "Pale2_node",
            "mesh": 3
        }
    ],
    "scenes": [
        {
            "nodes": [
                0
            ]
        }
    ],
    "scene": 0
}