{
    "asset": {
        "version": "2.0",
        "generator": "Open Asset Import Library (assimp v5.0.5eb040c7)"
    },
    "accessors": [
        {
            "bufferView": 0,
            "byteOffset": 0,
            "componentType": 5126,
            "count": 105,
            "type": "VEC3",
            "max": [
                70.36055755615235,
                173.5987548828125,
                26.24999237060547
            ],
            "min": [
                -6.177925109863281,
                121.22441101074219,
                -26.24999237060547
            ]
        },
        {
            "bufferView": 1,
            "byteOffset": 0,
            "componentType": 5126,
            "count": 105,
            "type": "VEC2",
            "max": [
                1.0,
                1.0
            ],
            "min": [
                0.0,
                0.0
            ]
        },
        {
            "bufferView": 2,
            "byteOffset": 0,
            "componentType": 5125,
            "count": 216,
            "type": "SCALAR",
            "max": [
                104
            ],
            "min": [
                0
            ]
        },
        {
            "bufferView": 3,
            "byteOffset": 0,
            "componentType": 5126,
            "count": 1748,
            "type": "VEC3",
            "max": [
                86.29550170898438,
                261.953857421875,
                36.224090576171878
            ],
            "min": [
                -83.27986907958985,
                -281.94091796875,
                -36.42430114746094
            ]
        },
        {
            "bufferView": 4,
            "byteOffset": 0,
            "componentType": 5126,
            "count": 1748,
            "type": "VEC2",
            "max": [
                0.9450100064277649,
                2.533635139465332
            ],
            "min": [
                0.011343000456690789,
                -0.18583893775939942
            ]
        },
        {
            "bufferView": 5,
            "byteOffset": 0,
            "componentType": 5125,
            "count": 4716,
            "type": "SCALAR",
            "max": [
                1747
            ],
            "min": [
                0
            ]
        },
        {
            "bufferView": 6,
            "byteOffset": 0,
            "componentType": 5126,
            "count": 580,
            "type": "VEC3",
            "max": [
                73.87548065185547,
                204.03660583496095,
                15.639389038085938
            ],
            "min": [
                42.596702575683597,
                103.3992919921875,
                -15.639389038085938
            ]
        },
        {
            "bufferView": 7,
            "byteOffset": 0,
            "componentType": 5126,
            "count": 580,
            "type": "VEC2",
            "max": [
                1.0,
                1.0
            ],
            "min": [
                0.0,
                0.0
            ]
        },
        {
            "bufferView": 8,
            "byteOffset": 0,
            "componentType": 5125,
            "count": 1872,
            "type": "SCALAR",
            "max": [
                579
            ],
            "min": [
                0
            ]
        },
        {
            "bufferView": 9,
            "byteOffset": 0,
            "componentType": 5126,
            "count": 1154,
            "type": "VEC3",
            "max": [
                25.0,
                272.4972229003906,
                36.224082946777347
            ],
            "min": [
                -82.58940124511719,
                189.873291015625,
                -36.42430114746094
            ]
        },
        {
            "bufferView": 10,
            "byteOffset": 0,
            "componentType": 5126,
            "count": 1154,
            "type": "VEC2",
            "max": [
                1.0,
                1.0
            ],
            "min": [
                0.0,
                0.0
            ]
        },
        {
            "bufferView": 11,
            "byteOffset": 0,
            "componentType": 5125,
            "count": 2676,
            "type": "SCALAR",
            "max": [
                1153
            ],
            "min": [
                0
            ]
        },
        {
            "bufferView": 12,
            "byteOffset": 0,
            "componentType": 5126,
            "count": 218,
            "type": "VEC3",
            "max": [
                44.07505416870117,
                271.0594177246094,
                29.652494430541993
            ],
            "min": [
                1.6545259952545167,
                163.3631591796875,
                -30.235584259033204
            ]
        },
        {
            "bufferView": 13,
            "byteOffset": 0,
            "componentType": 5126,
            "count": 218,
            "type": "VEC2",
            "max": [
                1.0,
                1.0
            ],
            "min": [
                0.0,
                0.0
            ]
        },
        {
            "bufferView": 14,
            "byteOffset": 0,
            "componentType": 5125,
            "count": 651,
            "type": "SCALAR",
            "max": [
                217
            ],
            "min": [
                0
            ]
        },
        {
            "bufferView": 15,
            "byteOffset": 0,
            "componentType": 5126,
            "count": 946,
            "type": "VEC3",
            "max": [
                86.29546356201172,
                272.4972229003906,
                36.22408676147461
            ],
            "min": [
                -32.81529998779297,
                181.52154541015626,
                -36.4243049621582
            ]
        },
        {
            "bufferView": 16,
            "byteOffset": 0,
            "componentType": 5126,
            "count": 946,
            "type": "VEC2",
            "max": [
                1.0,
                1.0
            ],
            "min": [
                0.0,
                0.0
            ]
        },
        {
            "bufferView": 17,
            "byteOffset": 0,
            "componentType": 5125,
            "count": 2124,
            "type": "SCALAR",
            "max": [
                945
            ],
            "min": [
                0
            ]
        },
        {
            "bufferView": 18,
            "byteOffset": 0,
            "componentType": 5126,
            "count": 445,
            "type": "VEC3",
            "max": [
                -14.339115142822266,
                259.275146484375,
                17.377403259277345
            ],
            "min": [
                -54.3939208984375,
                43.79933166503906,
                -17.377403259277345
            ]
        },
        {
            "bufferView": 19,
            "byteOffset": 0,
            "componentType": 5126,
            "count": 445,
            "type": "VEC2",
            "max": [
                1.0,
                1.0
            ],
            "min": [
                0.0,
                0.0
            ]
        },
        {
            "bufferView": 20,
            "byteOffset": 0,
            "componentType": 5125,
            "count": 1272,
            "type": "SCALAR",
            "max": [
                444
            ],
            "min": [
                0
            ]
        },
        {
            "bufferView": 21,
            "byteOffset": 0,
            "componentType": 5126,
            "count": 167,
            "type": "VEC3",
            "max": [
                -11.05029296875,
                187.37286376953126,
                14.624463081359864
            ],
            "min": [
                -40.59318923950195,
                165.0922088623047,
                -14.624462127685547
            ]
        },
        {
            "bufferView": 22,
            "byteOffset": 0,
            "componentType": 5126,
            "count": 167,
            "type": "VEC2",
            "max": [
                1.0,
                1.0
            ],
            "min": [
                0.0,
                0.0
            ]
        },
        {
            "bufferView": 23,
            "byteOffset": 0,
            "componentType": 5125,
            "count": 354,
            "type": "SCALAR",
            "max": [
                166
            ],
            "min": [
                0
            ]
        }
    ],
    "buffers": [
        {
            "byteLength": 162784,
            "uri": "result.bin"
        }
    ],
    "bufferViews": [
        {
            "buffer": 0,
            "byteOffset": 0,
            "byteLength": 1260,
            "target": 34962
        },
        {
            "buffer": 0,
            "byteOffset": 1260,
            "byteLength": 840,
            "target": 34962
        },
        {
            "buffer": 0,
            "byteOffset": 2100,
            "byteLength": 864,
            "target": 34963
        },
        {
            "buffer": 0,
            "byteOffset": 2964,
            "byteLength": 20976,
            "target": 34962
        },
        {
            "buffer": 0,
            "byteOffset": 23940,
            "byteLength": 13984,
            "target": 34962
        },
        {
            "buffer": 0,
            "byteOffset": 37924,
            "byteLength": 18864,
            "target": 34963
        },
        {
            "buffer": 0,
            "byteOffset": 56788,
            "byteLength": 6960,
            "target": 34962
        },
        {
            "buffer": 0,
            "byteOffset": 63748,
            "byteLength": 4640,
            "target": 34962
        },
        {
            "buffer": 0,
            "byteOffset": 68388,
            "byteLength": 7488,
            "target": 34963
        },
        {
            "buffer": 0,
            "byteOffset": 75876,
            "byteLength": 13848,
            "target": 34962
        },
        {
            "buffer": 0,
            "byteOffset": 89724,
            "byteLength": 9232,
            "target": 34962
        },
        {
            "buffer": 0,
            "byteOffset": 98956,
            "byteLength": 10704,
            "target": 34963
        },
        {
            "buffer": 0,
            "byteOffset": 109660,
            "byteLength": 2616,
            "target": 34962
        },
        {
            "buffer": 0,
            "byteOffset": 112276,
            "byteLength": 1744,
            "target": 34962
        },
        {
            "buffer": 0,
            "byteOffset": 114020,
            "byteLength": 2604,
            "target": 34963
        },
        {
            "buffer": 0,
            "byteOffset": 116624,
            "byteLength": 11352,
            "target": 34962
        },
        {
            "buffer": 0,
            "byteOffset": 127976,
            "byteLength": 7568,
            "target": 34962
        },
        {
            "buffer": 0,
            "byteOffset": 135544,
            "byteLength": 8496,
            "target": 34963
        },
        {
            "buffer": 0,
            "byteOffset": 144040,
            "byteLength": 5340,
            "target": 34962
        },
        {
            "buffer": 0,
            "byteOffset": 149380,
            "byteLength": 3560,
            "target": 34962
        },
        {
            "buffer": 0,
            "byteOffset": 152940,
            "byteLength": 5088,
            "target": 34963
        },
        {
            "buffer": 0,
            "byteOffset": 158028,
            "byteLength": 2004,
            "target": 34962
        },
        {
            "buffer": 0,
            "byteOffset": 160032,
            "byteLength": 1336,
            "target": 34962
        },
        {
            "buffer": 0,
            "byteOffset": 161368,
            "byteLength": 1416,
            "target": 34963
        }
    ],
    "materials": [
        {
            "name": "DefaultMaterial",
            "pbrMetallicRoughness": {
                "baseColorFactor": [
                    0.6000000238418579,
                    0.6000000238418579,
                    0.6000000238418579,
                    1.0
                ],
                "metallicFactor": 0.0
            }
        },
        {
            "name": "black_plastic",
            "pbrMetallicRoughness": {
                "baseColorFactor": [
                    0.6000000238418579,
                    0.6000000238418579,
                    0.6000000238418579,
                    1.0
                ],
                "metallicFactor": 0.0
            }
        },
        {
            "name": "body",
            "pbrMetallicRoughness": {
                "baseColorFactor": [
                    0.6000000238418579,
                    0.6000000238418579,
                    0.6000000238418579,
                    1.0
                ],
                "metallicFactor": 0.0
            }
        },
        {
            "name": "metal",
            "pbrMetallicRoughness": {
                "baseColorFactor": [
                    0.6000000238418579,
                    0.6000000238418579,
                    0.6000000238418579,
                    1.0
                ],
                "metallicFactor": 0.0
            }
        }
    ],
    "meshes": [
        {
            "name": "detail3",
            "primitives": [
                {
                    "mode": 4,
                    "material": 1,
                    "indices": 2,
                    "attributes": {
                        "POSITION": 0,
                        "TEXCOORD_0": 1
                    }
                }
            ]
        },
        {
            "name": "body",
            "primitives": [
                {
                    "mode": 4,
                    "material": 2,
                    "indices": 5,
                    "attributes": {
                        "POSITION": 3,
                        "TEXCOORD_0": 4
                    }
                }
            ]
        },
        {
            "name": "Cylinder",
            "primitives": [
                {
                    "mode": 4,
                    "material": 3,
                    "indices": 8,
                    "attributes": {
                        "POSITION": 6,
                        "TEXCOORD_0": 7
                    }
                }
            ]
        },
        {
            "name": "button",
            "primitives": [
                {
                    "mode": 4,
                    "material": 3,
                    "indices": 11,
                    "attributes": {
                        "POSITION": 9,
                        "TEXCOORD_0": 10
                    }
                }
            ]
        },
        {
            "name": "detail",
            "primitives": [
                {
                    "mode": 4,
                    "material": 1,
                    "indices": 14,
                    "attributes": {
                        "POSITION": 12,
                        "TEXCOORD_0": 13
                    }
                }
            ]
        },
        {
            "name": "metal_part",
            "primitives": [
                {
                    "mode": 4,
                    "material": 3,
                    "indices": 17,
                    "attributes": {
                        "POSITION": 15,
                        "TEXCOORD_0": 16
                    }
                }
            ]
        },
        {
            "name": "flasher",
            "primitives": [
                {
                    "mode": 4,
                    "material": 3,
                    "indices": 20,
                    "attributes": {
                        "POSITION": 18,
                        "TEXCOORD_0": 19
                    }
                }
            ]
        },
        {
            "name": "flasher detail2",
            "primitives": [
                {
                    "mode": 4,
                    "material": 3,
                    "indices": 23,
                    "attributes": {
                        "POSITION": 21,
                        "TEXCOORD_0": 22
                    }
                }
            ]
        }
    ],
    "nodes": [
        {
            "name": "input.obj",
            "children": [
                1,
                2,
                3,
                4,
                5,
                6,
                7,
                8
            ]
        },
        {
            "name": "detail3",
            "mesh": 0
        },
        {
            "name": "body",
            "mesh": 1
        },
        {
            "name": "Cylinder",
            "mesh": 2
        },
        {
            "name": "button",
            "mesh": 3
        },
        {
            "name": "detail",
            "mesh": 4
        },
        {
            "name": "metal_part",
            "mesh": 5
        },
        {
            "name": "flasher",
            "mesh": 6
        },
        {
            "name": "flasher detail2",
            "mesh": 7
        }
    ],
    "scenes": [
        {
            "nodes": [
                0
            ]
        }
    ],
    "scene": 0
}