{
    "asset": {
        "version": "2.0",
        "generator": "Open Asset Import Library (assimp v5.0.5eb040c7)"
    },
    "accessors": [
        {
            "bufferView": 0,
            "byteOffset": 0,
            "componentType": 5126,
            "count": 44,
            "type": "VEC3",
            "max": [
                47.24409103393555,
                46.535430908203128,
                66.30211639404297
            ],
            "min": [
                0.7086600065231323,
                -0.0,
                15.734749794006348
            ]
        },
        {
            "bufferView": 1,
            "byteOffset": 0,
            "componentType": 5126,
            "count": 44,
            "type": "VEC3",
            "max": [
                1.0,
                1.0,
                0.0
            ],
            "min": [
                -0.9997740387916565,
                -1.0,
                -0.06492985039949417
            ]
        },
        {
            "bufferView": 2,
            "byteOffset": 0,
            "componentType": 5126,
            "count": 44,
            "type": "VEC2",
            "max": [
                55.66572952270508,
                -14.734749794006348
            ],
            "min": [
                -46.535430908203128,
                -67.283447265625
            ]
        },
        {
            "bufferView": 3,
            "byteOffset": 0,
            "componentType": 5125,
            "count": 66,
            "type": "SCALAR",
            "max": [
                43
            ],
            "min": [
                0
            ]
        },
        {
            "bufferView": 4,
            "byteOffset": 0,
            "componentType": 5126,
            "count": 1977,
            "type": "VEC3",
            "max": [
                47.24409103393555,
                46.535430908203128,
                81.29608917236328
            ],
            "min": [
                0.7086600065231323,
                0.0,
                0.0
            ]
        },
        {
            "bufferView": 5,
            "byteOffset": 0,
            "componentType": 5126,
            "count": 1977,
            "type": "VEC3",
            "max": [
                1.0,
                1.0,
                1.0
            ],
            "min": [
                -1.0,
                -1.0,
                -1.0
            ]
        },
        {
            "bufferView": 6,
            "byteOffset": 0,
            "componentType": 5126,
            "count": 1977,
            "type": "VEC2",
            "max": [
                2.475490093231201,
                1.8939199447631837
            ],
            "min": [
                -1.419450044631958,
                -1.0649199485778809
            ]
        },
        {
            "bufferView": 7,
            "byteOffset": 0,
            "componentType": 5125,
            "count": 3393,
            "type": "SCALAR",
            "max": [
                1976
            ],
            "min": [
                0
            ]
        }
    ],
    "buffers": [
        {
            "byteLength": 78508,
            "uri": "result.bin"
        }
    ],
    "bufferViews": [
        {
            "buffer": 0,
            "byteOffset": 0,
            "byteLength": 528,
            "target": 34962
        },
        {
            "buffer": 0,
            "byteOffset": 528,
            "byteLength": 528,
            "target": 34962
        },
        {
            "buffer": 0,
            "byteOffset": 1056,
            "byteLength": 352,
            "target": 34962
        },
        {
            "buffer": 0,
            "byteOffset": 1408,
            "byteLength": 264,
            "target": 34963
        },
        {
            "buffer": 0,
            "byteOffset": 1672,
            "byteLength": 23724,
            "target": 34962
        },
        {
            "buffer": 0,
            "byteOffset": 25396,
            "byteLength": 23724,
            "target": 34962
        },
        {
            "buffer": 0,
            "byteOffset": 49120,
            "byteLength": 15816,
            "target": 34962
        },
        {
            "buffer": 0,
            "byteOffset": 64936,
            "byteLength": 13572,
            "target": 34963
        }
    ],
    "materials": [
        {
            "name": "DefaultMaterial",
            "pbrMetallicRoughness": {
                "baseColorFactor": [
                    0.6000000238418579,
                    0.6000000238418579,
                    0.6000000238418579,
                    1.0
                ],
                "metallicFactor": 0.0
            }
        },
        {
            "name": "SketchUp_Default",
            "pbrMetallicRoughness": {
                "baseColorFactor": [
                    0.6000000238418579,
                    0.6000000238418579,
                    0.6000000238418579,
                    1.0
                ],
                "metallicFactor": 0.0
            }
        },
        {
            "name": "_2",
            "pbrMetallicRoughness": {
                "baseColorFactor": [
                    0.6000000238418579,
                    0.6000000238418579,
                    0.6000000238418579,
                    1.0
                ],
                "metallicFactor": 0.0
            }
        }
    ],
    "meshes": [
        {
            "name": "Bird_cage",
            "primitives": [
                {
                    "mode": 4,
                    "material": 1,
                    "indices": 3,
                    "attributes": {
                        "POSITION": 0,
                        "NORMAL": 1,
                        "TEXCOORD_0": 2
                    }
                },
                {
                    "mode": 4,
                    "material": 2,
                    "indices": 7,
                    "attributes": {
                        "POSITION": 4,
                        "NORMAL": 5,
                        "TEXCOORD_0": 6
                    }
                }
            ]
        }
    ],
    "nodes": [
        {
            "name": "input.obj",
            "children": [
                1
            ]
        },
        {
            "name": "Bird_cage",
            "mesh": 0
        }
    ],
    "scenes": [
        {
            "nodes": [
                0
            ]
        }
    ],
    "scene": 0
}