{
    "asset": {
        "version": "2.0",
        "generator": "Open Asset Import Library (assimp v5.0.5eb040c7)"
    },
    "accessors": [
        {
            "bufferView": 0,
            "byteOffset": 0,
            "componentType": 5126,
            "count": 149,
            "type": "VEC3",
            "max": [
                -1.0,
                1.310703992843628,
                0.2045390009880066
            ],
            "min": [
                -1.0505650043487549,
                -1.310703992843628,
                -0.2045390009880066
            ]
        },
        {
            "bufferView": 1,
            "byteOffset": 0,
            "componentType": 5126,
            "count": 149,
            "type": "VEC2",
            "max": [
                0.9900000095367432,
                0.8918920159339905
            ],
            "min": [
                0.009999999776482582,
                0.19116801023483277
            ]
        },
        {
            "bufferView": 2,
            "byteOffset": 0,
            "componentType": 5125,
            "count": 744,
            "type": "SCALAR",
            "max": [
                148
            ],
            "min": [
                0
            ]
        },
        {
            "bufferView": 3,
            "byteOffset": 0,
            "componentType": 5126,
            "count": 2338,
            "type": "VEC3",
            "max": [
                1.0501099824905396,
                1.3459019660949708,
                0.24431799352169038
            ],
            "min": [
                -1.0761229991912842,
                -1.3459019660949708,
                -0.24431799352169038
            ]
        },
        {
            "bufferView": 4,
            "byteOffset": 0,
            "componentType": 5126,
            "count": 2338,
            "type": "VEC2",
            "max": [
                0.993054986000061,
                0.9766150116920471
            ],
            "min": [
                0.011095999740064145,
                0.030848026275634767
            ]
        },
        {
            "bufferView": 5,
            "byteOffset": 0,
            "componentType": 5125,
            "count": 13152,
            "type": "SCALAR",
            "max": [
                2337
            ],
            "min": [
                0
            ]
        },
        {
            "bufferView": 6,
            "byteOffset": 0,
            "componentType": 5126,
            "count": 1402,
            "type": "VEC3",
            "max": [
                0.9988160133361816,
                1.3000010251998902,
                0.21053799986839295
            ],
            "min": [
                -1.030532956123352,
                -1.3000010251998902,
                -0.21053799986839295
            ]
        },
        {
            "bufferView": 7,
            "byteOffset": 0,
            "componentType": 5126,
            "count": 1402,
            "type": "VEC2",
            "max": [
                0.9910460114479065,
                0.9847049713134766
            ],
            "min": [
                0.008690999820828438,
                0.019977986812591554
            ]
        },
        {
            "bufferView": 8,
            "byteOffset": 0,
            "componentType": 5125,
            "count": 7680,
            "type": "SCALAR",
            "max": [
                1401
            ],
            "min": [
                0
            ]
        }
    ],
    "buffers": [
        {
            "byteLength": 164084,
            "uri": "result.bin"
        }
    ],
    "bufferViews": [
        {
            "buffer": 0,
            "byteOffset": 0,
            "byteLength": 1788,
            "target": 34962
        },
        {
            "buffer": 0,
            "byteOffset": 1788,
            "byteLength": 1192,
            "target": 34962
        },
        {
            "buffer": 0,
            "byteOffset": 2980,
            "byteLength": 2976,
            "target": 34963
        },
        {
            "buffer": 0,
            "byteOffset": 5956,
            "byteLength": 28056,
            "target": 34962
        },
        {
            "buffer": 0,
            "byteOffset": 34012,
            "byteLength": 18704,
            "target": 34962
        },
        {
            "buffer": 0,
            "byteOffset": 52716,
            "byteLength": 52608,
            "target": 34963
        },
        {
            "buffer": 0,
            "byteOffset": 105324,
            "byteLength": 16824,
            "target": 34962
        },
        {
            "buffer": 0,
            "byteOffset": 122148,
            "byteLength": 11216,
            "target": 34962
        },
        {
            "buffer": 0,
            "byteOffset": 133364,
            "byteLength": 30720,
            "target": 34963
        }
    ],
    "materials": [
        {
            "name": "DefaultMaterial",
            "pbrMetallicRoughness": {
                "baseColorFactor": [
                    0.6000000238418579,
                    0.6000000238418579,
                    0.6000000238418579,
                    1.0
                ],
                "metallicFactor": 0.0
            }
        },
        {
            "name": "binding_binding_diffuse.tga",
            "pbrMetallicRoughness": {
                "baseColorFactor": [
                    0.6000000238418579,
                    0.6000000238418579,
                    0.6000000238418579,
                    1.0
                ],
                "metallicFactor": 0.0
            }
        },
        {
            "name": "cover_cover_diffuse.tga",
            "pbrMetallicRoughness": {
                "baseColorFactor": [
                    0.6000000238418579,
                    0.6000000238418579,
                    0.6000000238418579,
                    1.0
                ],
                "metallicFactor": 0.0
            }
        },
        {
            "name": "pages_pages_diffuse.tga",
            "pbrMetallicRoughness": {
                "baseColorFactor": [
                    0.6000000238418579,
                    0.6000000238418579,
                    0.6000000238418579,
                    1.0
                ],
                "metallicFactor": 0.0
            }
        }
    ],
    "meshes": [
        {
            "name": "binding_binding",
            "primitives": [
                {
                    "mode": 4,
                    "material": 1,
                    "indices": 2,
                    "attributes": {
                        "POSITION": 0,
                        "TEXCOORD_0": 1
                    }
                }
            ]
        },
        {
            "name": "cover_cover",
            "primitives": [
                {
                    "mode": 4,
                    "material": 2,
                    "indices": 5,
                    "attributes": {
                        "POSITION": 3,
                        "TEXCOORD_0": 4
                    }
                }
            ]
        },
        {
            "name": "pages_pages",
            "primitives": [
                {
                    "mode": 4,
                    "material": 3,
                    "indices": 8,
                    "attributes": {
                        "POSITION": 6,
                        "TEXCOORD_0": 7
                    }
                }
            ]
        }
    ],
    "nodes": [
        {
            "name": "input.obj",
            "children": [
                1,
                2,
                3
            ]
        },
        {
            "name": "binding_binding",
            "mesh": 0
        },
        {
            "name": "cover_cover",
            "mesh": 1
        },
        {
            "name": "pages_pages",
            "mesh": 2
        }
    ],
    "scenes": [
        {
            "nodes": [
                0
            ]
        }
    ],
    "scene": 0
}