{"accessors" : [{"bufferView" : 0, "byteOffset" : 0, "componentType" : 5123, "count" : 1854, "type" : "SCALAR", "max" : [473], "min" : [0]}, {"bufferView" : 1, "byteOffset" : 0, "componentType" : 5126, "count" : 474, "type" : "VEC3", "max" : [15.2500009536743, 7.50000143051147, 43.440185546875], "min" : [-15.2499990463257, -8.70426940917969, -0.559927642345428]}, {"bufferView" : 1, "byteOffset" : 12, "componentType" : 5126, "count" : 474, "type" : "VEC2", "max" : [1, 0], "min" : [0, -1]}, {"bufferView" : 0, "byteOffset" : 3708, "componentType" : 5123, "count" : 1092, "type" : "SCALAR", "max" : [269], "min" : [0]}, {"bufferView" : 2, "byteOffset" : 0, "componentType" : 5126, "count" : 270, "type" : "VEC3", "max" : [4.16006088256836, 18.778450012207, 2.72817921638489], "min" : [-1.23683702945709, -18.9996109008789, -0.541802287101746]}, {"bufferView" : 2, "byteOffset" : 12, "componentType" : 5126, "count" : 270, "type" : "VEC2", "max" : [1, 0], "min" : [0, -1]}, {"bufferView" : 0, "byteOffset" : 5892, "componentType" : 5123, "count" : 372, "type" : "SCALAR", "max" : [103], "min" : [0]}, {"bufferView" : 3, "byteOffset" : 0, "componentType" : 5126, "count" : 104, "type" : "VEC3", "max" : [2.3779604434967, 0.349998444318771, 2.594646692276], "min" : [-2.37796354293823, -4.23585510253906, 3.12172723226922E-08]}, {"bufferView" : 3, "byteOffset" : 12, "componentType" : 5126, "count" : 104, "type" : "VEC2", "max" : [1, 0], "min" : [0, -1]}, {"bufferView" : 0, "byteOffset" : 6636, "componentType" : 5123, "count" : 372, "type" : "SCALAR", "max" : [103], "min" : [0]}, {"bufferView" : 4, "byteOffset" : 0, "componentType" : 5126, "count" : 104, "type" : "VEC3", "max" : [1.18898141384125, 0.65057373046875, 2.2433602809906], "min" : [-1.18898379802704, -0.650573790073395, 1.74119207940748E-09]}, {"bufferView" : 4, "byteOffset" : 12, "componentType" : 5126, "count" : 104, "type" : "VEC2", "max" : [1, 0], "min" : [0, -1]}, {"bufferView" : 0, "byteOffset" : 7380, "componentType" : 5123, "count" : 1092, "type" : "SCALAR", "max" : [269], "min" : [0]}, {"bufferView" : 5, "byteOffset" : 0, "componentType" : 5126, "count" : 270, "type" : "VEC3", "max" : [4.16005945205688, 18.778450012207, 2.89507341384888], "min" : [-1.2368381023407, -18.9996109008789, -0.541805028915405]}, {"bufferView" : 5, "byteOffset" : 12, "componentType" : 5126, "count" : 270, "type" : "VEC2", "max" : [1, 0], "min" : [0, -1]}, {"bufferView" : 0, "byteOffset" : 9564, "componentType" : 5123, "count" : 372, "type" : "SCALAR", "max" : [103], "min" : [0]}, {"bufferView" : 6, "byteOffset" : 0, "componentType" : 5126, "count" : 104, "type" : "VEC3", "max" : [2.3779628276825, 0.349998444318771, 2.59464287757874], "min" : [-2.37796115875244, -4.23585510253906, -3.07214031636249E-06]}, {"bufferView" : 6, "byteOffset" : 12, "componentType" : 5126, "count" : 104, "type" : "VEC2", "max" : [1, 0], "min" : [0, -1]}, {"bufferView" : 0, "byteOffset" : 10308, "componentType" : 5123, "count" : 372, "type" : "SCALAR", "max" : [103], "min" : [0]}, {"bufferView" : 7, "byteOffset" : 0, "componentType" : 5126, "count" : 104, "type" : "VEC3", "max" : [1.18898284435272, 0.65057373046875, 2.24335861206055], "min" : [-1.18898248672485, -0.650573790073395, -2.31813487516774E-06]}, {"bufferView" : 7, "byteOffset" : 12, "componentType" : 5126, "count" : 104, "type" : "VEC2", "max" : [1, 0], "min" : [0, -1]}, {"bufferView" : 0, "byteOffset" : 11052, "componentType" : 5123, "count" : 1692, "type" : "SCALAR", "max" : [369], "min" : [0]}, {"bufferView" : 8, "byteOffset" : 0, "componentType" : 5126, "count" : 370, "type" : "VEC3", "max" : [13.9689207077026, 8.64443969726563, 5.81008195877075], "min" : [-13.6800975799561, -7.99798583984375, -2.69559632215532E-06]}, {"bufferView" : 8, "byteOffset" : 12, "componentType" : 5126, "count" : 370, "type" : "VEC2", "max" : [1, 0], "min" : [0, -1]}, {"bufferView" : 0, "byteOffset" : 14436, "componentType" : 5123, "count" : 1308, "type" : "SCALAR", "max" : [441], "min" : [0]}, {"bufferView" : 9, "byteOffset" : 0, "componentType" : 5126, "count" : 442, "type" : "VEC3", "max" : [3.44758915901184, 1.52132439613342, 0.574154555797577], "min" : [-5.54780912399292, -1.52132415771484, -16.0583438873291]}, {"bufferView" : 9, "byteOffset" : 12, "componentType" : 5126, "count" : 442, "type" : "VEC2", "max" : [1, 0], "min" : [0, -1]}, {"bufferView" : 0, "byteOffset" : 17052, "componentType" : 5123, "count" : 1308, "type" : "SCALAR", "max" : [441], "min" : [0]}, {"bufferView" : 10, "byteOffset" : 0, "componentType" : 5126, "count" : 442, "type" : "VEC3", "max" : [3.23603773117065, 1.01522827148438, 0.507617652416229], "min" : [-3.23604154586792, -1.01522827148438, -4.03130297854659E-06]}, {"bufferView" : 10, "byteOffset" : 12, "componentType" : 5126, "count" : 442, "type" : "VEC2", "max" : [1, 0], "min" : [0, -1]}, {"bufferView" : 0, "byteOffset" : 19668, "componentType" : 5123, "count" : 120, "type" : "SCALAR", "max" : [41], "min" : [0]}, {"bufferView" : 11, "byteOffset" : 0, "componentType" : 5126, "count" : 42, "type" : "VEC3", "max" : [1.18358170986176, 1.81328582763672, 3.36077869178553E-06], "min" : [-1.0633453130722, -2.92922210693359, -3.7740553580079E-06]}, {"bufferView" : 0, "byteOffset" : 19908, "componentType" : 5123, "count" : 78, "type" : "SCALAR", "max" : [27], "min" : [0]}, {"bufferView" : 12, "byteOffset" : 0, "componentType" : 5126, "count" : 28, "type" : "VEC3", "max" : [0.148032337427139, 0.148033142089844, 3.41751706400828E-06], "min" : [-0.148032337427139, -0.148033142089844, -3.41751706400828E-06]}, {"bufferView" : 0, "byteOffset" : 20064, "componentType" : 5123, "count" : 5184, "type" : "SCALAR", "max" : [863], "min" : [0]}, {"bufferView" : 13, "byteOffset" : 0, "componentType" : 5126, "count" : 864, "type" : "VEC3", "max" : [1.33458375930786, 1.94956207275391, 0.148034885525703], "min" : [-1.21477472782135, -3.09385681152344, -0.974488377571106]}, {"bufferView" : 0, "byteOffset" : 30432, "componentType" : 5123, "count" : 5184, "type" : "SCALAR", "max" : [863], "min" : [0]}, {"bufferView" : 14, "byteOffset" : 0, "componentType" : 5126, "count" : 864, "type" : "VEC3", "max" : [1.33458578586578, 1.94955694675446, 0.148036450147629], "min" : [-1.2147730588913, -3.09385275840759, -0.974483132362366]}, {"bufferView" : 0, "byteOffset" : 40800, "componentType" : 5123, "count" : 720, "type" : "SCALAR", "max" : [245], "min" : [0]}, {"bufferView" : 15, "byteOffset" : 0, "componentType" : 5126, "count" : 246, "type" : "VEC3", "max" : [9.69835662841797, 0.478324800729752, 0.500003755092621], "min" : [-11.4734439849854, -0.487693905830383, -3.57562157660141E-06]}, {"bufferView" : 15, "byteOffset" : 12, "componentType" : 5126, "count" : 246, "type" : "VEC2", "max" : [1, 0], "min" : [0, -1]}, {"bufferView" : 0, "byteOffset" : 42240, "componentType" : 5123, "count" : 720, "type" : "SCALAR", "max" : [121], "min" : [0]}, {"bufferView" : 16, "byteOffset" : 0, "componentType" : 5126, "count" : 122, "type" : "VEC3", "max" : [9.69835662841797, 0.478324800729752, 0.500003755092621], "min" : [-11.4734439849854, -0.487693905830383, -3.57562157660141E-06]}, {"bufferView" : 0, "byteOffset" : 43680, "componentType" : 5123, "count" : 900, "type" : "SCALAR", "max" : [219], "min" : [0]}, {"bufferView" : 17, "byteOffset" : 0, "componentType" : 5126, "count" : 220, "type" : "VEC3", "max" : [3.27402281761169, 3.3347704410553, 24.263729095459], "min" : [-2.88707590103149, -4.64691114425659, -2.27049279212952]}, {"bufferView" : 17, "byteOffset" : 12, "componentType" : 5126, "count" : 220, "type" : "VEC2", "max" : [1, 0], "min" : [0, -1]}], "asset" : {"generator" : "Aspose.3D 20.2.1", "version" : "2.0"}, "buffers" : [{"uri" : "buffer.bin", "byteLength" : 131592}], "bufferViews" : [{"buffer" : 0, "byteOffset" : 0, "byteLength" : 45480, "target" : 34963}, {"buffer" : 0, "byteOffset" : 45484, "byteLength" : 9480, "byteStride" : 20, "target" : 34962}, {"buffer" : 0, "byteOffset" : 54968, "byteLength" : 5400, "byteStride" : 20, "target" : 34962}, {"buffer" : 0, "byteOffset" : 60372, "byteLength" : 2080, "byteStride" : 20, "target" : 34962}, {"buffer" : 0, "byteOffset" : 62456, "byteLength" : 2080, "byteStride" : 20, "target" : 34962}, {"buffer" : 0, "byteOffset" : 64540, "byteLength" : 5400, "byteStride" : 20, "target" : 34962}, {"buffer" : 0, "byteOffset" : 69944, "byteLength" : 2080, "byteStride" : 20, "target" : 34962}, {"buffer" : 0, "byteOffset" : 72028, "byteLength" : 2080, "byteStride" : 20, "target" : 34962}, {"buffer" : 0, "byteOffset" : 74112, "byteLength" : 7400, "byteStride" : 20, "target" : 34962}, {"buffer" : 0, "byteOffset" : 81516, "byteLength" : 8840, "byteStride" : 20, "target" : 34962}, {"buffer" : 0, "byteOffset" : 90360, "byteLength" : 8840, "byteStride" : 20, "target" : 34962}, {"buffer" : 0, "byteOffset" : 99204, "byteLength" : 504, "byteStride" : 12, "target" : 34962}, {"buffer" : 0, "byteOffset" : 99712, "byteLength" : 336, "byteStride" : 12, "target" : 34962}, {"buffer" : 0, "byteOffset" : 100052, "byteLength" : 10368, "byteStride" : 12, "target" : 34962}, {"buffer" : 0, "byteOffset" : 110424, "byteLength" : 10368, "byteStride" : 12, "target" : 34962}, {"buffer" : 0, "byteOffset" : 120796, "byteLength" : 4920, "byteStride" : 20, "target" : 34962}, {"buffer" : 0, "byteOffset" : 125720, "byteLength" : 1464, "byteStride" : 12, "target" : 34962}, {"buffer" : 0, "byteOffset" : 127188, "byteLength" : 4400, "byteStride" : 20, "target" : 34962}], "images" : [{"uri" : "CARPTBLU.JPG"}, {"uri" : "CARPTBLU.JPG"}, {"uri" : "BLKFELT.JPG"}, {"uri" : "BLKFELT.JPG"}, {"uri" : "BLKFELT.JPG"}, {"uri" : "BLKFELT.JPG"}, {"uri" : "BLKFELT.JPG"}, {"uri" : "CARPTBLU.JPG"}, {"uri" : "CARPTBLU.JPG"}, {"uri" : "BLKFELT.JPG"}, {"uri" : "EASTPAK .JPG"}, {"uri" : "BLKFELT.JPG"}, {"uri" : "BLKFELT.JPG"}, {"uri" : "CARPTBLU.JPG"}, {"uri" : "CARPTBLU.JPG"}, {"uri" : "CARPTBLU.JPG"}, {"uri" : "CARPTBLU.JPG"}], "materials" : [{"pbrMetallicRoughness" : {"baseColorFactor" : [0.231372549019608, 0.231372549019608, 0.392156862745098, 1], "baseColorTexture" : {"index" : 1, "texCoord" : 0}, "metallicFactor" : 0, "roughnessFactor" : 0}, "normalTexture" : {"index" : 0, "texCoord" : 0, "scale" : 1}, "emissiveFactor" : [0, 0, 0], "alphaMode" : "OPAQUE", "doubleSided" : false}, {"pbrMetallicRoughness" : {"baseColorFactor" : [0.588235294117647, 0.588235294117647, 0.588235294117647, 1], "baseColorTexture" : {"index" : 2, "texCoord" : 0}, "metallicFactor" : 0, "roughnessFactor" : 0}, "emissiveFactor" : [0, 0, 0], "alphaMode" : "OPAQUE", "doubleSided" : false}, {"pbrMetallicRoughness" : {"baseColorFactor" : [0.588235294117647, 0.588235294117647, 0.588235294117647, 1], "baseColorTexture" : {"index" : 3, "texCoord" : 0}, "metallicFactor" : 0, "roughnessFactor" : 0}, "emissiveFactor" : [0, 0, 0], "alphaMode" : "OPAQUE", "doubleSided" : false}, {"pbrMetallicRoughness" : {"baseColorFactor" : [0, 0, 0, 1], "metallicFactor" : 0, "roughnessFactor" : 0}, "emissiveFactor" : [0, 0, 0], "alphaMode" : "OPAQUE", "doubleSided" : false}, {"pbrMetallicRoughness" : {"baseColorFactor" : [0.588235294117647, 0.588235294117647, 0.588235294117647, 1], "baseColorTexture" : {"index" : 4, "texCoord" : 0}, "metallicFactor" : 0, "roughnessFactor" : 0}, "emissiveFactor" : [0, 0, 0], "alphaMode" : "OPAQUE", "doubleSided" : false}, {"pbrMetallicRoughness" : {"baseColorFactor" : [0.588235294117647, 0.588235294117647, 0.588235294117647, 1], "baseColorTexture" : {"index" : 5, "texCoord" : 0}, "metallicFactor" : 0, "roughnessFactor" : 0}, "emissiveFactor" : [0, 0, 0], "alphaMode" : "OPAQUE", "doubleSided" : false}, {"pbrMetallicRoughness" : {"baseColorFactor" : [0.588235294117647, 0.588235294117647, 0.588235294117647, 1], "baseColorTexture" : {"index" : 6, "texCoord" : 0}, "metallicFactor" : 0, "roughnessFactor" : 0}, "emissiveFactor" : [0, 0, 0], "alphaMode" : "OPAQUE", "doubleSided" : false}, {"pbrMetallicRoughness" : {"baseColorFactor" : [0.231372549019608, 0.231372549019608, 0.392156862745098, 1], "baseColorTexture" : {"index" : 8, "texCoord" : 0}, "metallicFactor" : 0, "roughnessFactor" : 0}, "normalTexture" : {"index" : 7, "texCoord" : 0, "scale" : 1}, "emissiveFactor" : [0, 0, 0], "alphaMode" : "OPAQUE", "doubleSided" : false}, {"pbrMetallicRoughness" : {"baseColorFactor" : [0.588235294117647, 0.588235294117647, 0.588235294117647, 1], "baseColorTexture" : {"index" : 9, "texCoord" : 0}, "metallicFactor" : 0, "roughnessFactor" : 0}, "emissiveFactor" : [0, 0, 0], "alphaMode" : "OPAQUE", "doubleSided" : false}, {"pbrMetallicRoughness" : {"baseColorFactor" : [0.588235294117647, 0.588235294117647, 0.588235294117647, 1], "baseColorTexture" : {"index" : 10, "texCoord" : 0}, "metallicFactor" : 0, "roughnessFactor" : 0}, "emissiveFactor" : [0, 0, 0], "alphaMode" : "OPAQUE", "doubleSided" : false}, {"pbrMetallicRoughness" : {"baseColorFactor" : [0.698039215686274, 0.698039215686274, 0.698039215686274, 1], "metallicFactor" : 0, "roughnessFactor" : 0}, "emissiveFactor" : [0, 0, 0], "alphaMode" : "OPAQUE", "doubleSided" : false}, {"pbrMetallicRoughness" : {"baseColorFactor" : [0.698039215686274, 0.698039215686274, 0.698039215686274, 1], "metallicFactor" : 0, "roughnessFactor" : 0}, "emissiveFactor" : [0, 0, 0], "alphaMode" : "OPAQUE", "doubleSided" : false}, {"pbrMetallicRoughness" : {"baseColorFactor" : [0.588235294117647, 0.588235294117647, 0.588235294117647, 1], "baseColorTexture" : {"index" : 11, "texCoord" : 0}, "metallicFactor" : 0, "roughnessFactor" : 0}, "emissiveFactor" : [0, 0, 0], "alphaMode" : "OPAQUE", "doubleSided" : false}, {"pbrMetallicRoughness" : {"baseColorFactor" : [0.588235294117647, 0.588235294117647, 0.588235294117647, 1], "baseColorTexture" : {"index" : 12, "texCoord" : 0}, "metallicFactor" : 0, "roughnessFactor" : 0}, "emissiveFactor" : [0, 0, 0], "alphaMode" : "OPAQUE", "doubleSided" : false}, {"pbrMetallicRoughness" : {"baseColorFactor" : [0.231372549019608, 0.231372549019608, 0.392156862745098, 1], "baseColorTexture" : {"index" : 14, "texCoord" : 0}, "metallicFactor" : 0, "roughnessFactor" : 0}, "normalTexture" : {"index" : 13, "texCoord" : 0, "scale" : 1}, "emissiveFactor" : [0, 0, 0], "alphaMode" : "OPAQUE", "doubleSided" : false}, {"pbrMetallicRoughness" : {"baseColorFactor" : [0, 0, 0, 1], "metallicFactor" : 0, "roughnessFactor" : 0}, "emissiveFactor" : [0, 0, 0], "alphaMode" : "OPAQUE", "doubleSided" : false}, {"pbrMetallicRoughness" : {"baseColorFactor" : [0.231372549019608, 0.231372549019608, 0.392156862745098, 1], "baseColorTexture" : {"index" : 16, "texCoord" : 0}, "metallicFactor" : 0, "roughnessFactor" : 0}, "normalTexture" : {"index" : 15, "texCoord" : 0, "scale" : 1}, "emissiveFactor" : [0, 0, 0], "alphaMode" : "OPAQUE", "doubleSided" : false}], "meshes" : [{"primitives" : [{"attributes" : {"POSITION" : 1, "TEXCOORD_0" : 2}, "indices" : 0, "material" : 0, "mode" : 4}]}, {"primitives" : [{"attributes" : {"POSITION" : 4, "TEXCOORD_0" : 5}, "indices" : 3, "material" : 1, "mode" : 4}]}, {"primitives" : [{"attributes" : {"POSITION" : 7, "TEXCOORD_0" : 8}, "indices" : 6, "material" : 2, "mode" : 4}]}, {"primitives" : [{"attributes" : {"POSITION" : 10, "TEXCOORD_0" : 11}, "indices" : 9, "material" : 3, "mode" : 4}]}, {"primitives" : [{"attributes" : {"POSITION" : 13, "TEXCOORD_0" : 14}, "indices" : 12, "material" : 4, "mode" : 4}]}, {"primitives" : [{"attributes" : {"POSITION" : 16, "TEXCOORD_0" : 17}, "indices" : 15, "material" : 5, "mode" : 4}]}, {"primitives" : [{"attributes" : {"POSITION" : 19, "TEXCOORD_0" : 20}, "indices" : 18, "material" : 6, "mode" : 4}]}, {"primitives" : [{"attributes" : {"POSITION" : 22, "TEXCOORD_0" : 23}, "indices" : 21, "material" : 7, "mode" : 4}]}, {"primitives" : [{"attributes" : {"POSITION" : 25, "TEXCOORD_0" : 26}, "indices" : 24, "material" : 8, "mode" : 4}]}, {"primitives" : [{"attributes" : {"POSITION" : 28, "TEXCOORD_0" : 29}, "indices" : 27, "material" : 9, "mode" : 4}]}, {"primitives" : [{"attributes" : {"POSITION" : 31}, "indices" : 30, "material" : 10, "mode" : 4}]}, {"primitives" : [{"attributes" : {"POSITION" : 33}, "indices" : 32, "material" : 11, "mode" : 4}]}, {"primitives" : [{"attributes" : {"POSITION" : 35}, "indices" : 34, "material" : 12, "mode" : 4}]}, {"primitives" : [{"attributes" : {"POSITION" : 37}, "indices" : 36, "material" : 13, "mode" : 4}]}, {"primitives" : [{"attributes" : {"POSITION" : 39, "TEXCOORD_0" : 40}, "indices" : 38, "material" : 14, "mode" : 4}]}, {"primitives" : [{"attributes" : {"POSITION" : 42}, "indices" : 41, "material" : 15, "mode" : 4}]}, {"primitives" : [{"attributes" : {"POSITION" : 44, "TEXCOORD_0" : 45}, "indices" : 43, "material" : 16, "mode" : 4}]}], "nodes" : [{"matrix" : [1.02901721000671, 0, -0.00398844992741942, 0, -0.00398844992741942, 0, -1.02901721000671, 0, 0, 1.02902495861053, 0, 0, -34.432445526123, 88.8003845214844, 64.109260559082, 1], "mesh" : 0, "name" : "Box892"}, {"matrix" : [0.00387574196793139, 1.49011736283455E-08, 0.999992489814758, 0, 4.45876260357636E-08, 1, -2.99753644128486E-08, 0, -0.999992489814758, 1.49011558647771E-08, 0.00387575686909258, 0, -25.04176902771, 108.043014526367, 51.7458457946777, 1], "mesh" : 1, "name" : "Box893"}, {"matrix" : [0.00387574196793139, 1.49011736283455E-08, 0.999992489814758, 0, 4.45876260357636E-08, 1, -2.99753644128486E-08, 0, -0.999992489814758, 1.49011558647771E-08, 0.00387575686909258, 0, -24.6421203613281, 90.1158676147461, 54.0571174621582, 1], "mesh" : 2, "name" : "Box894"}, {"matrix" : [0.00387574196793139, 1.49011736283455E-08, 0.999992489814758, 0, 4.45876260357636E-08, 1, -2.99753644128486E-08, 0, -0.999992489814758, 1.49011558647771E-08, 0.00387575686909258, 0, -24.8220252990723, 89.2409591674805, 53.9456481933594, 1], "mesh" : 3, "name" : "Box895"}, {"matrix" : [0.00387574196793139, 1.49011736283455E-08, 0.999992489814758, 0, 4.45876260357636E-08, 1, -2.99753644128486E-08, 0, -0.999992489814758, 1.49011558647771E-08, 0.00387575686909258, 0, -41.1587753295898, 108.043014526367, 51.8083152770996, 1], "mesh" : 4, "name" : "Box896"}, {"matrix" : [0.00387574196793139, 1.49011736283455E-08, 0.999992489814758, 0, 4.45876260357636E-08, 1, -2.99753644128486E-08, 0, -0.999992489814758, 1.49011558647771E-08, 0.00387575686909258, 0, -40.7591285705566, 90.1158676147461, 54.1195869445801, 1], "mesh" : 5, "name" : "Box897"}, {"matrix" : [0.00387574196793139, 1.49011736283455E-08, 0.999992489814758, 0, 4.45876260357636E-08, 1, -2.99753644128486E-08, 0, -0.999992489814758, 1.49011558647771E-08, 0.00387575686909258, 0, -40.9390258789063, 89.2409591674805, 54.0081176757813, 1], "mesh" : 6, "name" : "Box898"}, {"matrix" : [-0.999992489814758, 1.36806654893462E-08, 0.00387581321410835, 0, 1.36805589079358E-08, 1, -5.30244598229146E-11, 0, -0.00387581321410835, -5.77315972805081E-15, -0.999992489814758, 0, -34.1138153076172, 96.9753723144531, 76.3312225341797, 1], "mesh" : 7, "name" : "Box899"}, {"matrix" : [-0.963739097118378, 0.249324500560761, 0.0950997248291969, 0, 0.118946775794029, 0.0823605135083199, 0.989478886127472, 0, 0.238868877291679, 0.96491140127182, -0.109030403196812, 0, -33.139476776123, 138.441207885742, 61.458911895752, 1], "mesh" : 8, "name" : "Box900"}, {"matrix" : [-0.999992489814758, 1.36806654893462E-08, 0.00387581321410835, 0, 1.36805589079358E-08, 1, -5.30244598229146E-11, 0, -0.00387581321410835, -5.77315972805081E-15, -0.999992489814758, 0, -26.6065120697021, 91.7039184570313, 76.4776382446289, 1], "mesh" : 9, "name" : "Box901"}, {"matrix" : [-0.999992489814758, 1.36806654893462E-08, 0.00387581321410835, 0, 1.36805589079358E-08, 1, -5.30244598229146E-11, 0, -0.00387581321410835, -5.77315972805081E-15, -0.999992489814758, 0, -22.8149147033691, 99.9178924560547, 70.6632690429688, 1], "mesh" : 10, "name" : "Line642"}, {"matrix" : [-0.999992489814758, 1.36806654893462E-08, 0.00387581321410835, 0, 1.36805589079358E-08, 1, -5.30244598229146E-11, 0, -0.00387581321410835, -5.77315972805081E-15, -0.999992489814758, 0, -24.0649394989014, 100.787780761719, 70.6681137084961, 1], "mesh" : 11, "name" : "Circle03"}, {"matrix" : [-0.999992489814758, 1.36806654893462E-08, 0.00387581321410835, 0, 1.36805589079358E-08, 1, -5.30244598229146E-11, 0, -0.00387581321410835, -5.77315972805081E-15, -0.999992489814758, 0, -22.793701171875, 99.9178924560547, 76.1361846923828, 1], "mesh" : 12, "name" : "Loft05"}, {"matrix" : [-0.999992489814758, 1.03162429709869E-08, 0.00387580902315676, 0, -0.00038430021959357, 0.995071887969971, -0.099155455827713, 0, -0.00385670945979655, -0.0991561412811279, -0.995064437389374, 0, -19.7704315185547, 114.916351318359, 70.6255798339844, 1], "mesh" : 13, "name" : "Loft06"}, {"matrix" : [-0.999992489814758, 1.36806654893462E-08, 0.00387581321410835, 0, 1.36805589079358E-08, 1, -5.30244598229146E-11, 0, -0.00387581321410835, -5.77315972805081E-15, -0.999992489814758, 0, -34.8489875793457, 102.265960693359, 76.1605453491211, 1], "mesh" : 14, "name" : "Line643"}, {"matrix" : [-0.999992489814758, 1.36806654893462E-08, 0.00387581321410835, 0, 1.36805589079358E-08, 1, -5.30244598229146E-11, 0, -0.00387581321410835, -5.77315972805081E-15, -0.999992489814758, 0, -34.8488006591797, 101.79069519043, 76.209114074707, 1], "mesh" : 15, "name" : "Line644"}, {"matrix" : [-0.00387586117722094, -1.04308128356934E-07, -0.999992489814758, 0, -1.04653871346727E-07, 1, -8.90020075416942E-08, 0, 0.999992489814758, 1.04308128356934E-07, -0.00387584627605975, 0, -45.6004524230957, 105.418754577637, 73.5444946289063, 1], "mesh" : 16, "name" : "Box902"}], "samplers" : [{"magFilter" : 9729, "minFilter" : 9729, "wrapS" : 10497, "wrapT" : 10497}, {"magFilter" : 9729, "minFilter" : 9729, "wrapS" : 10497, "wrapT" : 10497}, {"magFilter" : 9729, "minFilter" : 9729, "wrapS" : 10497, "wrapT" : 10497}, {"magFilter" : 9729, "minFilter" : 9729, "wrapS" : 10497, "wrapT" : 10497}, {"magFilter" : 9729, "minFilter" : 9729, "wrapS" : 10497, "wrapT" : 10497}, {"magFilter" : 9729, "minFilter" : 9729, "wrapS" : 10497, "wrapT" : 10497}, {"magFilter" : 9729, "minFilter" : 9729, "wrapS" : 10497, "wrapT" : 10497}, {"magFilter" : 9729, "minFilter" : 9729, "wrapS" : 10497, "wrapT" : 10497}, {"magFilter" : 9729, "minFilter" : 9729, "wrapS" : 10497, "wrapT" : 10497}, {"magFilter" : 9729, "minFilter" : 9729, "wrapS" : 10497, "wrapT" : 10497}, {"magFilter" : 9729, "minFilter" : 9729, "wrapS" : 10497, "wrapT" : 10497}, {"magFilter" : 9729, "minFilter" : 9729, "wrapS" : 10497, "wrapT" : 10497}, {"magFilter" : 9729, "minFilter" : 9729, "wrapS" : 10497, "wrapT" : 10497}, {"magFilter" : 9729, "minFilter" : 9729, "wrapS" : 10497, "wrapT" : 10497}, {"magFilter" : 9729, "minFilter" : 9729, "wrapS" : 10497, "wrapT" : 10497}, {"magFilter" : 9729, "minFilter" : 9729, "wrapS" : 10497, "wrapT" : 10497}, {"magFilter" : 9729, "minFilter" : 9729, "wrapS" : 10497, "wrapT" : 10497}], "scene" : 0, "scenes" : [{"nodes" : [0, 1, 2, 3, 4, 5, 6, 7, 8, 9, 10, 11, 12, 13, 14, 15, 16]}], "textures" : [{"sampler" : 0, "source" : 0}, {"sampler" : 1, "source" : 1}, {"sampler" : 2, "source" : 2}, {"sampler" : 3, "source" : 3}, {"sampler" : 4, "source" : 4}, {"sampler" : 5, "source" : 5}, {"sampler" : 6, "source" : 6}, {"sampler" : 7, "source" : 7}, {"sampler" : 8, "source" : 8}, {"sampler" : 9, "source" : 9}, {"sampler" : 10, "source" : 10}, {"sampler" : 11, "source" : 11}, {"sampler" : 12, "source" : 12}, {"sampler" : 13, "source" : 13}, {"sampler" : 14, "source" : 14}, {"sampler" : 15, "source" : 15}, {"sampler" : 16, "source" : 16}]}