{
    "asset": {
        "version": "2.0",
        "generator": "Open Asset Import Library (assimp v5.0.5eb040c7)"
    },
    "accessors": [
        {
            "bufferView": 0,
            "byteOffset": 0,
            "componentType": 5126,
            "count": 516,
            "type": "VEC3",
            "max": [
                2.033463478088379,
                0.6837577819824219,
                1.4656203985214234
            ],
            "min": [
                -2.0334582328796388,
                -0.7551822662353516,
                1.1719114780426026
            ]
        },
        {
            "bufferView": 1,
            "byteOffset": 0,
            "componentType": 5126,
            "count": 516,
            "type": "VEC3",
            "max": [
                0.9938784837722778,
                0.4618593752384186,
                0.9998749494552612
            ],
            "min": [
                -0.9938662648200989,
                -0.9998623132705689,
                -0.9998748302459717
            ]
        },
        {
            "bufferView": 2,
            "byteOffset": 0,
            "componentType": 5125,
            "count": 2232,
            "type": "SCALAR",
            "max": [
                515
            ],
            "min": [
                0
            ]
        },
        {
            "bufferView": 3,
            "byteOffset": 0,
            "componentType": 5126,
            "count": 594,
            "type": "VEC3",
            "max": [
                2.2159929275512697,
                0.7551822662353516,
                1.465846300125122
            ],
            "min": [
                -2.2159876823425295,
                -0.1879129409790039,
                -1.4658465385437012
            ]
        },
        {
            "bufferView": 4,
            "byteOffset": 0,
            "componentType": 5126,
            "count": 594,
            "type": "VEC3",
            "max": [
                0.9982958436012268,
                1.0,
                0.9999991059303284
            ],
            "min": [
                -0.9982849359512329,
                -1.0,
                -0.9999991059303284
            ]
        },
        {
            "bufferView": 5,
            "byteOffset": 0,
            "componentType": 5125,
            "count": 2004,
            "type": "SCALAR",
            "max": [
                593
            ],
            "min": [
                0
            ]
        }
    ],
    "buffers": [
        {
            "byteLength": 43584,
            "uri": "result.bin"
        }
    ],
    "bufferViews": [
        {
            "buffer": 0,
            "byteOffset": 0,
            "byteLength": 6192,
            "target": 34962
        },
        {
            "buffer": 0,
            "byteOffset": 6192,
            "byteLength": 6192,
            "target": 34962
        },
        {
            "buffer": 0,
            "byteOffset": 12384,
            "byteLength": 8928,
            "target": 34963
        },
        {
            "buffer": 0,
            "byteOffset": 21312,
            "byteLength": 7128,
            "target": 34962
        },
        {
            "buffer": 0,
            "byteOffset": 28440,
            "byteLength": 7128,
            "target": 34962
        },
        {
            "buffer": 0,
            "byteOffset": 35568,
            "byteLength": 8016,
            "target": 34963
        }
    ],
    "materials": [
        {
            "name": "blinn2",
            "pbrMetallicRoughness": {
                "baseColorFactor": [
                    0.020080000162124635,
                    0.018960000947117807,
                    0.0692799985408783,
                    0.469613254070282
                ],
                "metallicFactor": 0.0,
                "roughnessFactor": 0.9602766036987305
            },
            "alphaMode": "BLEND"
        },
        {
            "name": "blinn1",
            "pbrMetallicRoughness": {
                "baseColorFactor": [
                    0.0,
                    0.0,
                    0.0,
                    1.0
                ],
                "metallicFactor": 0.0,
                "roughnessFactor": 0.9602766036987305
            }
        }
    ],
    "meshes": [
        {
            "name": "glasses",
            "primitives": [
                {
                    "mode": 4,
                    "material": 0,
                    "indices": 2,
                    "attributes": {
                        "POSITION": 0,
                        "NORMAL": 1
                    }
                },
                {
                    "mode": 4,
                    "material": 1,
                    "indices": 5,
                    "attributes": {
                        "POSITION": 3,
                        "NORMAL": 4
                    }
                }
            ]
        }
    ],
    "nodes": [
        {
            "name": "RootNode",
            "children": [
                1,
                2
            ]
        },
        {
            "name": "glasses",
            "mesh": 0
        },
        {
            "name": "aviator1:pointLight1",
            "matrix": [
                1.0,
                0.0,
                0.0,
                0.0,
                0.0,
                1.0,
                0.0,
                0.0,
                0.0,
                0.0,
                1.0,
                0.0,
                0.0,
                16.181039810180665,
                5.0406904220581059,
                1.0
            ]
        }
    ],
    "scenes": [
        {
            "nodes": [
                0
            ]
        }
    ],
    "scene": 0
}