{
    "asset": {
        "version": "2.0",
        "generator": "Open Asset Import Library (assimp v5.0.5eb040c7)"
    },
    "accessors": [
        {
            "bufferView": 0,
            "byteOffset": 0,
            "componentType": 5126,
            "count": 199,
            "type": "VEC3",
            "max": [
                4.831669807434082,
                50.16499710083008,
                22.7623233795166
            ],
            "min": [
                -4.83167028427124,
                -38.50952911376953,
                -17.906635284423829
            ]
        },
        {
            "bufferView": 1,
            "byteOffset": 0,
            "componentType": 5126,
            "count": 199,
            "type": "VEC3",
            "max": [
                1.0,
                0.9991946220397949,
                0.9998505711555481
            ],
            "min": [
                -1.0,
                -0.9065167307853699,
                -0.9832318425178528
            ]
        },
        {
            "bufferView": 2,
            "byteOffset": 0,
            "componentType": 5125,
            "count": 786,
            "type": "SCALAR",
            "max": [
                198
            ],
            "min": [
                0
            ]
        }
    ],
    "buffers": [
        {
            "byteLength": 7920,
            "uri": "result.bin"
        }
    ],
    "bufferViews": [
        {
            "buffer": 0,
            "byteOffset": 0,
            "byteLength": 2388,
            "target": 34962
        },
        {
            "buffer": 0,
            "byteOffset": 2388,
            "byteLength": 2388,
            "target": 34962
        },
        {
            "buffer": 0,
            "byteOffset": 4776,
            "byteLength": 3144,
            "target": 34963
        }
    ],
    "images": [
        {
            "uri": "lowpol fish\\Atlantic bluefin tuna\\Atlantic bluefin tuna\\Atlantic bluefin tuna.tga"
        }
    ],
    "materials": [
        {
            "name": "Atlantic bluefin tuna",
            "pbrMetallicRoughness": {
                "baseColorTexture": {
                    "index": 0
                },
                "baseColorFactor": [
                    0.5882353186607361,
                    0.5882353186607361,
                    0.5882353186607361,
                    1.0
                ],
                "metallicFactor": 0.0,
                "roughnessFactor": 0.959750771522522
            }
        }
    ],
    "meshes": [
        {
            "name": "Atlantic bluefin tuna",
            "primitives": [
                {
                    "mode": 4,
                    "material": 0,
                    "indices": 2,
                    "attributes": {
                        "POSITION": 0,
                        "NORMAL": 1
                    }
                }
            ]
        }
    ],
    "nodes": [
        {
            "name": "RootNode",
            "children": [
                1
            ]
        },
        {
            "name": "Atlantic bluefin tuna_$AssimpFbx$_PreRotation",
            "matrix": [
                1.0,
                0.0,
                0.0,
                0.0,
                0.0,
                -4.371138828673793e-8,
                -1.0,
                0.0,
                0.0,
                1.0,
                -4.371138828673793e-8,
                0.0,
                0.0,
                0.0,
                0.0,
                1.0
            ],
            "children": [
                2
            ]
        },
        {
            "name": "Atlantic bluefin tuna_$AssimpFbx$_Rotation",
            "matrix": [
                -4.371138828673793e-8,
                1.0,
                0.0,
                0.0,
                1.0,
                4.371138828673793e-8,
                -8.742277657347586e-8,
                0.0,
                -8.742277657347586e-8,
                -3.82137093032941e-15,
                -1.0,
                0.0,
                0.0,
                0.0,
                0.0,
                1.0
            ],
            "children": [
                3
            ]
        },
        {
            "name": "Atlantic bluefin tuna_$AssimpFbx$_Scaling",
            "matrix": [
                1.0,
                0.0,
                0.0,
                0.0,
                0.0,
                -1.0,
                0.0,
                0.0,
                0.0,
                0.0,
                1.0,
                0.0,
                0.0,
                0.0,
                0.0,
                1.0
            ],
            "children": [
                4
            ]
        },
        {
            "name": "Atlantic bluefin tuna_$AssimpFbx$_GeometricTranslation",
            "matrix": [
                1.0,
                0.0,
                0.0,
                0.0,
                0.0,
                1.0,
                0.0,
                0.0,
                0.0,
                0.0,
                1.0,
                0.0,
                -2.547383530782099e-7,
                -5.827733993530273,
                -2.4278440475463869,
                1.0
            ],
            "children": [
                5
            ]
        },
        {
            "name": "Atlantic bluefin tuna",
            "mesh": 0
        }
    ],
    "samplers": [
        {}
    ],
    "scenes": [
        {
            "nodes": [
                0
            ]
        }
    ],
    "textures": [
        {
            "source": 0,
            "sampler": 0
        }
    ],
    "scene": 0
}