{"accessors" : [{"bufferView" : 0, "byteOffset" : 0, "componentType" : 5123, "count" : 336, "type" : "SCALAR", "max" : [64], "min" : [0]}, {"bufferView" : 1, "byteOffset" : 0, "componentType" : 5126, "count" : 65, "type" : "VEC3", "max" : [79.702880859375, 69.620361328125, 80.390625], "min" : [-40.1953735351563, -79.702880859375, -80.390625]}, {"bufferView" : 1, "byteOffset" : 12, "componentType" : 5126, "count" : 65, "type" : "VEC2", "max" : [1, 0], "min" : [0, -1]}, {"bufferView" : 0, "byteOffset" : 672, "componentType" : 5123, "count" : 336, "type" : "SCALAR", "max" : [64], "min" : [0]}, {"bufferView" : 2, "byteOffset" : 0, "componentType" : 5126, "count" : 65, "type" : "VEC3", "max" : [40.1953125, 69.620361328125, 80.390625], "min" : [-79.7028503417969, -79.702880859375, -80.390625]}, {"bufferView" : 2, "byteOffset" : 12, "componentType" : 5126, "count" : 65, "type" : "VEC2", "max" : [1, 0], "min" : [0, -1]}, {"bufferView" : 0, "byteOffset" : 1344, "componentType" : 5123, "count" : 24027, "type" : "SCALAR", "max" : [4098], "min" : [0]}, {"bufferView" : 3, "byteOffset" : 0, "componentType" : 5126, "count" : 4099, "type" : "VEC3", "max" : [1556.75073242188, 2533.2958984375, 4110.7314453125], "min" : [30.0703735351563, -3886.86669921875, -695.709045410156]}, {"bufferView" : 3, "byteOffset" : 12, "componentType" : 5126, "count" : 4099, "type" : "VEC2", "max" : [1, 0], "min" : [0, -1]}, {"bufferView" : 0, "byteOffset" : 49400, "componentType" : 5123, "count" : 588, "type" : "SCALAR", "max" : [124], "min" : [0]}, {"bufferView" : 4, "byteOffset" : 0, "componentType" : 5126, "count" : 125, "type" : "VEC3", "max" : [202.97314453125, 1201.07202148438, 281.201416015625], "min" : [-50.36181640625, -1054.14794921875, -503.703369140625]}, {"bufferView" : 4, "byteOffset" : 12, "componentType" : 5126, "count" : 125, "type" : "VEC2", "max" : [1.00000023841858, 1.19209289550781E-07], "min" : [-2.38418579101563E-07, -1.00000011920929]}, {"bufferView" : 0, "byteOffset" : 50576, "componentType" : 5123, "count" : 936, "type" : "SCALAR", "max" : [184], "min" : [0]}, {"bufferView" : 5, "byteOffset" : 0, "componentType" : 5126, "count" : 185, "type" : "VEC3", "max" : [86.9094848632813, 82.784423828125, 0.0001220703125], "min" : [-104.412048339844, -82.784423828125, -1760.40783691406]}, {"bufferView" : 5, "byteOffset" : 12, "componentType" : 5126, "count" : 185, "type" : "VEC2", "max" : [0.994449317455292, 0], "min" : [-0.117359757423401, -0.99999988079071]}], "asset" : {"generator" : "Aspose.3D 20.2.1", "version" : "2.0"}, "buffers" : [{"uri" : "buffer.bin", "byteLength" : 143252}], "bufferViews" : [{"buffer" : 0, "byteOffset" : 0, "byteLength" : 52448, "target" : 34963}, {"buffer" : 0, "byteOffset" : 52452, "byteLength" : 1300, "byteStride" : 20, "target" : 34962}, {"buffer" : 0, "byteOffset" : 53756, "byteLength" : 1300, "byteStride" : 20, "target" : 34962}, {"buffer" : 0, "byteOffset" : 55060, "byteLength" : 81980, "byteStride" : 20, "target" : 34962}, {"buffer" : 0, "byteOffset" : 137044, "byteLength" : 2500, "byteStride" : 20, "target" : 34962}, {"buffer" : 0, "byteOffset" : 139548, "byteLength" : 3700, "byteStride" : 20, "target" : 34962}], "images" : [{"uri" : "ZEBEYE.JPG"}, {"uri" : "ZEBEYE.JPG"}, {"uri" : "ZEBSKIN.JPG"}, {"uri" : "ZEBBODY.JPG"}, {"uri" : "ZEBHAIR.JPG"}, {"uri" : "ZEBHAIR.JPG"}, {"uri" : "ZEBTAIL.JPG"}, {"uri" : "ZEBTAIL.JPG"}], "materials" : [{"pbrMetallicRoughness" : {"baseColorFactor" : [0.290196078431373, 0.254901960784314, 0.223529411764706, 1], "baseColorTexture" : {"index" : 0, "texCoord" : 0}, "metallicFactor" : 0, "roughnessFactor" : 0}, "emissiveFactor" : [0, 0, 0], "alphaMode" : "OPAQUE", "doubleSided" : false}, {"pbrMetallicRoughness" : {"baseColorFactor" : [0.290196078431373, 0.254901960784314, 0.223529411764706, 1], "baseColorTexture" : {"index" : 1, "texCoord" : 0}, "metallicFactor" : 0, "roughnessFactor" : 0}, "emissiveFactor" : [0, 0, 0], "alphaMode" : "OPAQUE", "doubleSided" : false}, {"pbrMetallicRoughness" : {"baseColorFactor" : [0.952941176470588, 0.952941176470588, 0.952941176470588, 1], "baseColorTexture" : {"index" : 3, "texCoord" : 0}, "metallicFactor" : 0, "roughnessFactor" : 0}, "normalTexture" : {"index" : 2, "texCoord" : 0, "scale" : 1}, "emissiveFactor" : [0, 0, 0], "alphaMode" : "OPAQUE", "doubleSided" : false}, {"pbrMetallicRoughness" : {"baseColorFactor" : [0.698039215686274, 0.698039215686274, 0.698039215686274, 1], "baseColorTexture" : {"index" : 5, "texCoord" : 0}, "metallicFactor" : 0, "roughnessFactor" : 0}, "normalTexture" : {"index" : 4, "texCoord" : 0, "scale" : 1}, "emissiveFactor" : [0, 0, 0], "alphaMode" : "OPAQUE", "doubleSided" : false}, {"pbrMetallicRoughness" : {"baseColorFactor" : [0.698039215686274, 0.698039215686274, 0.698039215686274, 1], "baseColorTexture" : {"index" : 7, "texCoord" : 0}, "metallicFactor" : 0, "roughnessFactor" : 0}, "normalTexture" : {"index" : 6, "texCoord" : 0, "scale" : 1}, "emissiveFactor" : [0, 0, 0], "alphaMode" : "OPAQUE", "doubleSided" : false}], "meshes" : [{"primitives" : [{"attributes" : {"POSITION" : 1, "TEXCOORD_0" : 2}, "indices" : 0, "material" : 0, "mode" : 4}]}, {"primitives" : [{"attributes" : {"POSITION" : 4, "TEXCOORD_0" : 5}, "indices" : 3, "material" : 1, "mode" : 4}]}, {"primitives" : [{"attributes" : {"POSITION" : 7, "TEXCOORD_0" : 8}, "indices" : 6, "material" : 2, "mode" : 4}]}, {"primitives" : [{"attributes" : {"POSITION" : 10, "TEXCOORD_0" : 11}, "indices" : 9, "material" : 3, "mode" : 4}]}, {"primitives" : [{"attributes" : {"POSITION" : 13, "TEXCOORD_0" : 14}, "indices" : 12, "material" : 4, "mode" : 4}]}], "nodes" : [{"matrix" : [-1, 0, 0, 0, 0, 0, 1, 0, 0, 1, 0, 0, -1056.58361816406, 2985.369140625, -3381.42944335938, 1], "mesh" : 0, "name" : "ZEBEYE1"}, {"matrix" : [-1, 0, 0, 0, 0, 0, 1, 0, 0, 1, 0, 0, -509.428405761719, 2985.369140625, -3381.42944335938, 1], "mesh" : 1, "name" : "ZEBEYE02"}, {"matrix" : [-1, 0, 0, 0, 0, 0, 1, 0, 0, 1, 0, 0, -793.410461425781, 1563.412109375, -676.607421875, 1], "mesh" : 2, "name" : "ZEBBODY"}, {"matrix" : [-1, 0, 0, 0, 0, 0, 1, 0, 0, 1, 0, 0, -794.339111328125, 3462.94506835938, -2448.3017578125, 1], "mesh" : 3, "name" : "ZEBCRIN"}, {"matrix" : [-1, 0, 0, 0, 0, 0, 1, 0, 0, 1, 0, 0, -788.550415039063, 1038.4140625, 2495.388671875, 1], "mesh" : 4, "name" : "ZEBTAIL"}], "samplers" : [{"magFilter" : 9729, "minFilter" : 9729, "wrapS" : 10497, "wrapT" : 10497}, {"magFilter" : 9729, "minFilter" : 9729, "wrapS" : 10497, "wrapT" : 10497}, {"magFilter" : 9729, "minFilter" : 9729, "wrapS" : 10497, "wrapT" : 10497}, {"magFilter" : 9729, "minFilter" : 9729, "wrapS" : 10497, "wrapT" : 10497}, {"magFilter" : 9729, "minFilter" : 9729, "wrapS" : 10497, "wrapT" : 10497}, {"magFilter" : 9729, "minFilter" : 9729, "wrapS" : 10497, "wrapT" : 10497}, {"magFilter" : 9729, "minFilter" : 9729, "wrapS" : 10497, "wrapT" : 10497}, {"magFilter" : 9729, "minFilter" : 9729, "wrapS" : 10497, "wrapT" : 10497}], "scene" : 0, "scenes" : [{"nodes" : [0, 1, 2, 3, 4]}], "textures" : [{"sampler" : 0, "source" : 0}, {"sampler" : 1, "source" : 1}, {"sampler" : 2, "source" : 2}, {"sampler" : 3, "source" : 3}, {"sampler" : 4, "source" : 4}, {"sampler" : 5, "source" : 5}, {"sampler" : 6, "source" : 6}, {"sampler" : 7, "source" : 7}]}